<svg width="304" height="304" viewBox="0 0 304 304" fill="none" xmlns="http://www.w3.org/2000/svg">
<path d="M296.516 105.591C296.876 106.678 297.28 108.224 297.647 109.516C299.159 114.943 299.584 116.971 300.584 121.965C302.511 129.315 303.863 151.675 303.09 151.697C303.09 151.697 303.09 151.697 303.09 151.697C303.086 151.697 303.081 151.695 303.077 151.69C302.994 151.61 302.888 149.707 302.784 149.427C302.678 149.149 302.073 149.362 301.959 146.691C301.87 142.822 301.153 133.517 300.801 131.472C300.608 130.07 300.299 128.36 299.987 126.569C298.958 120.831 298.322 117.825 296.845 112.786C296.38 110.73 295.873 108.691 295.323 106.661C294.477 104.037 293.195 100.093 292.585 98.5289C292.095 97.2483 291.743 96.5242 291.207 95.2035C290.605 93.7265 289.719 91.4253 288.491 88.786C286.458 84.4745 285.884 83.8004 284.544 81.2799C283.144 78.6672 280.935 74.6152 278.85 71.45C278.58 71.0585 278.309 70.6685 278.037 70.28C278.186 70.5882 278.334 70.8969 278.481 71.2061C277.439 69.6121 277.06 68.8828 276.082 67.4318C274.924 65.7268 274.247 64.9187 273.438 63.7951C272.775 62.8753 271.913 61.6001 271.014 60.4334C269.699 58.737 269.908 59.1692 269.179 58.2747C268.934 57.8812 263.389 51.4242 263.022 51.1089C260.559 48.4161 260.423 48.1055 258.393 46.0158C252.735 40.2422 246.334 34.9244 240.282 30.5501C237.584 28.5925 234.712 26.6239 231.914 24.8272C236.526 27.3561 226.819 20.9604 230.238 23.6971C227.121 21.702 224.763 20.5228 221.68 18.8583C219.681 17.7923 218.31 17.0046 215.381 15.6233C210.177 13.1547 204.223 11.1245 202.785 10.229C196.415 7.98323 190.776 6.35588 188.336 6.0813C186.659 5.66267 182.327 4.49468 180.42 4.1164C178.647 3.57005 164.575 1.60206 162.249 1.61553C159.918 1.43508 155.88 1.27076 153.914 1.28229C153.117 1.28198 152.396 1.31993 151.637 1.35942C150.05 1.44525 148.308 1.52154 145.353 1.37252C140.269 1.64434 138.479 1.7869 133.76 2.26929C132.907 2.36279 132.804 2.31807 132.308 2.38101C131.282 2.51179 129.564 2.78948 127.741 3.08668C124.747 3.57628 123.038 3.80194 123.403 3.9191C121.459 4.32019 119.503 4.76426 117.57 5.24448C116.881 5.36692 116.193 5.49411 115.507 5.62601C114.484 5.91869 113.461 6.22329 112.44 6.53923C113.569 5.92109 106.4 8.14751 108.785 7.62049C105.07 8.66505 101.392 9.85476 97.7589 11.1887C98.1277 10.6531 89.8849 14.3676 90.6723 14.2633C90.2681 14.4426 89.8648 14.6236 89.4625 14.8064C85.9146 16.3382 82.7464 17.9751 78.5963 20.2132C74.4594 22.4871 74.8525 22.2791 73.5445 22.8897C72.5974 23.4747 71.6574 24.0698 70.7246 24.6749C66.0847 28.2154 66.4431 26.9415 58.6744 33.2426C55.988 34.9887 50.0588 40.2013 46.4141 43.9364C45.9863 44.3673 46.0117 44.4079 45.4485 44.9877C44.0546 46.388 40.5601 50.0242 40.8006 50.0108C39.5886 51.2657 38.3982 52.5414 37.2292 53.8387C36.3225 54.9406 35.431 56.0557 34.5569 57.1814C34.5987 57.2059 34.6404 57.2304 34.6822 57.2549C32.7389 59.3734 30.08 63.025 28.7746 64.8254C28.5132 65.183 28.4004 65.2204 27.6015 66.3435C26.663 67.656 25.027 70.1649 23.9945 71.7845C23.6599 72.4555 23.3302 73.1289 23.0061 73.804C21.2741 76.7551 20.5284 77.7182 19.5392 79.4757C19.3304 79.7761 16.3081 85.6577 16.1869 85.9992C14.9884 88.6573 15.3351 87.9128 12.0721 95.6829C11.5077 97.073 11.0186 98.1873 10.5434 99.4618C9.65892 101.687 7.57323 108.619 7.56764 109.199C6.5487 111.931 4.76742 119.499 4.32114 121.754C4.17453 122.428 4.04056 122.558 3.63578 124.644C3.29523 126.337 2.68492 130.737 2.41969 132.904C2.12332 135.204 1.96757 136.038 1.85994 137.062C1.76134 138.037 1.74464 138.942 1.64326 140.277C1.32716 144.466 1.11423 148.212 1.10849 151.544C1.10841 151.595 1.10837 151.646 1.10838 151.697C1.11186 156.442 1.506 160.586 1.92056 164.521C1.9918 165.509 2.04127 166.473 2.14921 167.511C3.42613 180.324 6.83271 194.523 11.5603 206.545C13.5199 212.217 20.1752 225.582 18.7423 221.835C19.6095 223.733 27.354 236.726 29.2035 238.962C30.8748 241.304 32.3202 243.072 33.7218 244.845C37.9884 250.162 41.1139 253.839 47.0901 259.605C48.6408 261.087 50.3948 262.575 51.3389 263.421C52.4749 264.443 53.6543 265.595 55.1694 266.873C58.7418 269.966 65.8466 275.181 69.6668 277.619C70.3586 278.072 70.5596 278.296 71.5476 278.95C75.3893 281.511 79.9429 283.973 79.2601 283.314C84.3641 286.285 89.37 288.518 94.4287 290.598C105.013 295.347 125.612 300.375 135.71 300.981C142.028 301.485 141.873 301.488 151.225 301.734C151.362 301.735 151.499 301.737 151.637 301.739C153.587 301.758 155.55 301.753 157.893 301.682C163.795 301.503 169.224 301.128 173.633 300.228C180.138 299.329 185.229 298.148 189.987 297.124C190.53 296.929 191.072 296.73 191.612 296.528C192.388 296.313 193.161 296.092 193.932 295.866C194.186 295.842 194.44 295.817 194.694 295.792C200.238 294.183 207.027 291.432 211.481 289.465C219.16 286.562 237.354 275.826 243.322 270.817C246.594 268.311 246.677 268.069 248.628 266.722C249.323 266.115 250.013 265.503 250.696 264.884C251.099 264.469 251.5 264.052 251.898 263.632C255.84 260.116 260.318 255.72 263.666 251.958C269.884 245.194 277.858 233.906 282.379 225.879C283.544 223.882 284.991 221.384 286.007 219.36C287.475 216.405 287.686 215.627 289.378 211.807C292.39 205.27 296.762 192.554 298.151 185.877C298.601 183.906 298.736 182.962 299.009 181.595C300.125 175.861 300.812 171.09 301.241 165.495C301.892 159.517 301.98 160.01 302.283 158.166C302.511 156.767 302.935 152.402 303.053 151.772C303.147 151.334 303.262 152.971 303.366 152.357C303.366 159.656 303.034 162.716 302.286 168.573C301.091 179.425 298.718 190.148 295.21 200.486C294.838 201.408 294.457 202.326 294.067 203.238C294.067 203.238 294.067 203.237 294.067 203.237C292.567 207.152 292.006 208.837 291.162 210.932C284.206 231.713 256.583 265.671 235.76 277.801C231.625 280.872 216.942 288.903 213.59 290.046C212.747 290.397 212.48 290.42 211.588 290.803C203.656 294.282 195.419 297.076 186.996 299.14C175.569 301.787 163.594 303.222 151.637 303.244C145.402 303.259 139.228 302.901 133.117 302.164C84.662 296.621 40.6676 266.037 18.1205 223.754C13.6669 215.646 9.07551 204.794 6.52857 196.097C5.46553 192.482 5.15039 190.915 3.90556 186.127C3.93009 186.068 3.95465 186.009 3.97924 185.95C2.97614 181.728 2.36146 179.046 1.61634 174.233C0.903857 170.221 -0.0108396 159.391 0.00955462 155.801C-0.0266489 153.926 0.0557241 154.624 0.0359735 152.873C0.033194 152.524 0.0299622 152.129 0.0275661 151.697C-0.00913781 148.4 0.115401 143.008 0.428615 139.359C0.694542 135.646 1.58624 129.388 2.07772 126.554C3.72338 116.338 6.60398 105.357 10.7682 95.1278C11.8993 92.3031 13.599 88.7542 14.004 87.895C14.7868 86.2054 14.9536 85.6697 15.497 84.5382C18.207 78.7749 23.3653 70.266 26.9824 65.1874C38.5405 48.4627 54.4425 33.3272 71.6891 22.717C82.4003 15.6735 102.13 7.38205 113.69 4.8164C116.154 4.20799 115.52 4.46531 117.598 3.97841C119.905 3.45172 121.161 3.13778 122.238 2.91858C129.041 1.37915 143.572 -0.192612 151.637 0.0193431C152.457 0.023337 153.207 0.0348499 153.874 0.0506117C155.256 0.0837774 156.251 0.189554 157.073 0.217894C157.49 0.232846 158.428 0.214784 159.736 0.278216C171.295 0.917506 179.683 2.28207 190.658 5.13492C211.699 10.5658 234.578 22.4225 251.607 37.673C255.336 40.9634 257.638 43.4891 258.138 43.9739C259.225 45.0533 260 45.667 262.152 47.9084C269.37 55.3154 277.617 66.6075 282.538 75.1117C285.036 79.2738 288.212 85.1603 290.174 89.5172C291.838 92.9695 294.978 101.426 295.513 103.031C295.874 103.997 296.127 104.416 296.516 105.591ZM212.273 14.1162C212.97 14.1992 206.381 11.5965 208.798 12.7036C209.343 12.9416 212.098 14.0805 212.273 14.1162ZM4.6189 184.556C4.65307 184.482 4.68729 184.408 4.72156 184.334C4.50048 183.429 4.2864 182.516 4.08285 181.61C4.15633 182.125 4.23438 182.649 4.31425 183.168C4.41367 183.631 4.51523 184.094 4.6189 184.556Z" fill="#023C97"/>
</svg>
