<svg width="65" height="65" viewBox="0 0 65 65" fill="none" xmlns="http://www.w3.org/2000/svg">
<path d="M24.5277 43.156C24.4928 43.156 24.4579 43.156 24.4231 43.1909L24.3533 43.2258C24.2487 43.2608 24.1789 43.2957 24.0743 43.3656C23.3768 43.7499 22.749 44.204 22.1561 44.6582C20.9702 45.5665 20.1332 46.4748 19.5054 47.4879C18.8079 48.5708 18.5289 49.6189 18.5986 50.7018C18.7032 51.9245 19.2613 52.8328 20.2727 53.3918C20.9005 53.7411 21.6329 53.9507 22.5048 54.0206C22.6095 54.0206 22.749 54.0206 22.8536 54.0206C22.9582 54.0206 23.028 54.0206 23.1326 54.0206C23.2373 54.0206 23.307 54.0206 23.4116 54.0206H24.3184L23.4465 53.7411C23.4116 53.7411 23.4116 53.7411 23.3768 53.7062C22.6443 53.5315 22.0166 53.287 21.4585 52.9726C20.8656 52.6232 20.4471 52.2739 20.1332 51.8197C19.6449 51.0861 19.5403 50.3176 19.8193 49.4093C19.9937 48.7804 20.3425 48.1516 20.8307 47.4529C21.598 46.37 22.5048 45.4617 23.307 44.728C23.6558 44.4136 24.0045 44.0643 24.3533 43.7499C24.4231 43.68 24.4928 43.6101 24.5626 43.5403L24.9113 43.156H24.5277Z" fill="white"/>
<path d="M38.5836 38.7193C38.6534 38.7193 38.758 38.7193 38.8278 38.7193C38.8626 38.7193 38.8626 38.7542 38.8975 38.7542C38.8626 38.7892 38.8626 38.8241 38.8278 38.8241C38.758 38.859 38.7231 38.859 38.6534 38.859C37.6071 39.0686 36.5608 39.2433 35.5145 39.4529C34.1891 39.7324 32.8987 40.1865 31.6431 40.6756C31.5385 40.7106 31.399 40.7804 31.2943 40.8154C31.1548 40.8503 31.0502 40.8154 31.0153 40.7105C30.9456 40.5359 31.0153 40.3961 31.1548 40.3263C31.2943 40.2564 31.4687 40.2215 31.6082 40.1865C33.0731 39.7324 34.5379 39.3481 36.0376 39.0686C36.8747 38.894 37.7117 38.7892 38.5836 38.7193Z" fill="white"/>
<path d="M38.7587 44.1342H38.3402L38.5494 43.8198H39.1075V46.1604H38.7587V44.1342Z" fill="white"/>
<path d="M40.1531 46.2302L39.909 46.0556L40.467 45.3569C40.4321 45.3569 40.3973 45.3569 40.3275 45.3569C40.1183 45.3569 39.9439 45.287 39.7695 45.1473C39.63 45.0075 39.5602 44.8329 39.5602 44.6233C39.5602 44.3787 39.63 44.204 39.8044 44.0294C39.9439 43.8547 40.1531 43.7848 40.3973 43.7848C40.6414 43.7848 40.8507 43.8547 40.9902 44.0294C41.1297 44.1691 41.1994 44.3438 41.1994 44.5534C41.1994 44.6931 41.1646 44.8678 41.0948 45.0075C41.0948 45.0425 41.0599 45.0774 41.0599 45.1123C41.0599 45.1473 41.0251 45.1822 40.9902 45.2171C40.9553 45.2521 40.9553 45.287 40.9553 45.287C40.9553 45.287 40.9204 45.3219 40.8855 45.3569C40.8507 45.3918 40.8507 45.4267 40.8158 45.4267L40.1531 46.2302ZM40.3624 45.0425C40.5019 45.0425 40.6065 45.0075 40.7112 44.9027C40.8158 44.7979 40.8507 44.6931 40.8507 44.5534C40.8507 44.4136 40.8158 44.3088 40.7112 44.239C40.6065 44.1342 40.5019 44.0992 40.3973 44.0992C40.2926 44.0992 40.1531 44.1342 40.0834 44.239C39.9787 44.3438 39.9439 44.4486 39.9439 44.5883C39.9439 44.7281 39.9787 44.8329 40.0834 44.9377C40.1183 45.0075 40.2229 45.0425 40.3624 45.0425Z" fill="white"/>
<path d="M42.4891 43.7498L42.7332 43.9245L42.1752 44.6232C42.21 44.6232 42.2798 44.6232 42.3147 44.6232C42.5239 44.6232 42.6983 44.693 42.8378 44.8328C42.9773 44.9725 43.0471 45.1472 43.0471 45.3917C43.0471 45.6363 42.9773 45.8109 42.803 45.9856C42.6635 46.1254 42.4542 46.1952 42.21 46.1952C41.9659 46.1952 41.7566 46.1254 41.6171 45.9856C41.4776 45.8459 41.4079 45.6712 41.4079 45.4616C41.4079 45.3219 41.4428 45.1472 41.5125 45.0075C41.5125 44.9725 41.5474 44.9376 41.5474 44.9027C41.5474 44.8677 41.5823 44.8328 41.6171 44.7979C41.652 44.7629 41.652 44.728 41.652 44.728C41.652 44.728 41.6869 44.693 41.7218 44.6581C41.7566 44.6232 41.7566 44.5882 41.7915 44.5882L42.4891 43.7498ZM42.2798 44.9027C42.1403 44.9027 42.0357 44.9376 41.931 45.0424C41.8264 45.1123 41.7915 45.252 41.7915 45.3917C41.7915 45.5315 41.8264 45.6363 41.931 45.7411C42.0357 45.811 42.1403 45.8808 42.2798 45.8808C42.4193 45.8808 42.5239 45.8459 42.5937 45.7411C42.6983 45.6363 42.7332 45.5315 42.7332 45.3917C42.7332 45.252 42.6983 45.1472 42.5937 45.0424C42.4891 44.9725 42.3844 44.9027 42.2798 44.9027Z" fill="white"/>
<path d="M44.4422 43.7498L44.6863 43.9245L44.1283 44.6232C44.1632 44.6232 44.2329 44.6232 44.2678 44.6232C44.4771 44.6232 44.6515 44.693 44.791 44.8328C44.9305 44.9725 45.0002 45.1472 45.0002 45.3917C45.0002 45.6363 44.9305 45.8109 44.7561 45.9856C44.6166 46.1254 44.4073 46.1952 44.1632 46.1952C43.919 46.1952 43.7098 46.1254 43.5703 45.9856C43.4308 45.8459 43.361 45.6712 43.361 45.4616C43.361 45.3219 43.3959 45.1472 43.4656 45.0075C43.4656 44.9725 43.5005 44.9376 43.5005 44.9027C43.5005 44.8677 43.5354 44.8328 43.5703 44.7979C43.6051 44.7629 43.6051 44.728 43.6051 44.728C43.6051 44.728 43.64 44.693 43.6749 44.6581C43.7098 44.6232 43.7098 44.5882 43.7447 44.5882L44.4422 43.7498ZM44.2329 44.9027C44.0934 44.9027 43.9888 44.9376 43.8842 45.0424C43.7795 45.1123 43.7447 45.252 43.7447 45.3917C43.7447 45.5315 43.7795 45.6363 43.8842 45.7411C43.9888 45.811 44.0934 45.8808 44.2329 45.8808C44.3724 45.8808 44.4771 45.8459 44.5468 45.7411C44.6515 45.6363 44.6863 45.5315 44.6863 45.3917C44.6863 45.252 44.6515 45.1472 44.5468 45.0424C44.4771 44.9725 44.3724 44.9027 44.2329 44.9027Z" fill="white"/>
<path d="M39.5597 49.2345H37.9902L38.7924 48.2563C38.897 48.1166 39.0017 47.9769 39.0714 47.907C39.1412 47.8022 39.1761 47.6624 39.1761 47.5576C39.1761 47.4528 39.1412 47.348 39.0714 47.2782C39.0017 47.2083 38.897 47.1734 38.7924 47.1734C38.6529 47.1734 38.5831 47.2083 38.5134 47.2782C38.4436 47.348 38.4088 47.4528 38.4088 47.5926H38.06C38.06 47.383 38.1297 47.2083 38.2693 47.0686C38.4088 46.9288 38.5831 46.8589 38.8273 46.8589C39.0714 46.8589 39.2458 46.9288 39.3853 47.0686C39.5248 47.2083 39.5946 47.383 39.5946 47.5576C39.5946 47.7323 39.5248 47.872 39.4202 48.0467C39.3504 48.1515 39.2458 48.2913 39.1063 48.4659L38.7575 48.8852H39.5597V49.2345Z" fill="white"/>
<path d="M40.8497 49.2695C40.6404 49.2695 40.4661 49.1996 40.3265 49.025C40.1173 48.8153 40.0475 48.5009 40.0475 48.0817C40.0475 47.6625 40.1522 47.3481 40.3265 47.1385C40.4661 46.9638 40.6404 46.894 40.8497 46.894C41.059 46.894 41.2333 46.9638 41.3729 47.1385C41.5821 47.3481 41.6519 47.6974 41.6519 48.0817C41.6519 48.5009 41.5472 48.8153 41.3729 49.025C41.2333 49.1996 41.059 49.2695 40.8497 49.2695ZM40.8497 47.2084C40.7102 47.2084 40.6056 47.2782 40.5358 47.383C40.4312 47.5577 40.3614 47.7673 40.3614 48.0817C40.3614 48.3961 40.4312 48.6057 40.5358 48.7804C40.6056 48.9201 40.7102 48.9551 40.8497 48.9551C40.9892 48.9551 41.0938 48.8852 41.1636 48.7804C41.2682 48.6057 41.338 48.3961 41.338 48.0817C41.338 47.7673 41.2682 47.5577 41.1636 47.383C41.059 47.2782 40.9543 47.2084 40.8497 47.2084Z" fill="white"/>
<path d="M43.4998 49.2345H41.9303L42.7325 48.2563C42.8371 48.1166 42.9418 47.9769 43.0115 47.907C43.0813 47.8022 43.1162 47.6624 43.1162 47.5576C43.1162 47.4528 43.0813 47.348 43.0115 47.2782C42.9418 47.2083 42.8371 47.1734 42.7325 47.1734C42.593 47.1734 42.5232 47.2083 42.4535 47.2782C42.3837 47.348 42.3489 47.4528 42.3489 47.5926H42.0001C42.0001 47.383 42.0698 47.2083 42.2094 47.0686C42.3489 46.9288 42.5232 46.8589 42.7674 46.8589C43.0115 46.8589 43.1859 46.9288 43.3254 47.0686C43.4649 47.2083 43.5347 47.383 43.5347 47.5576C43.5347 47.7323 43.4649 47.872 43.3603 48.0467C43.2905 48.1515 43.1859 48.2913 43.0464 48.4659L42.6976 48.8852H43.4998V49.2345Z" fill="white"/>
<path d="M44.8605 46.8589L45.1046 47.0336L44.5466 47.7323C44.5815 47.7323 44.6512 47.7323 44.6861 47.7323C44.8954 47.7323 45.0698 47.8022 45.2093 47.9419C45.3488 48.0817 45.4185 48.2563 45.4185 48.5009C45.4185 48.7454 45.3488 48.9201 45.1744 49.0948C45.0349 49.2345 44.8256 49.3044 44.5815 49.3044C44.3373 49.3044 44.1281 49.2345 43.9886 49.0948C43.8491 48.955 43.7793 48.7803 43.7793 48.5707C43.7793 48.431 43.8142 48.2563 43.8839 48.1166C43.8839 48.0817 43.9188 48.0467 43.9188 48.0118C43.9188 47.9769 43.9537 47.9419 43.9886 47.907C44.0234 47.872 44.0234 47.8371 44.0234 47.8371C44.0234 47.8371 44.0583 47.8022 44.0932 47.7672C44.1281 47.7323 44.1281 47.6974 44.1629 47.6974L44.8605 46.8589ZM44.6512 48.0118C44.5117 48.0118 44.4071 48.0467 44.3025 48.1515C44.1978 48.2214 44.1629 48.3611 44.1629 48.5009C44.1629 48.6406 44.1978 48.7454 44.3025 48.8502C44.4071 48.9201 44.5117 48.99 44.6512 48.99C44.7907 48.99 44.8954 48.955 44.9651 48.8502C45.0697 48.7454 45.1046 48.6406 45.1046 48.5009C45.1046 48.3611 45.0697 48.2563 44.9651 48.1515C44.8954 48.0817 44.7559 48.0118 44.6512 48.0118Z" fill="white"/>
<path d="M28.887 41.2346L29.5846 41.2695C29.8636 41.3044 30.0728 41.3044 30.1775 41.3394C30.2821 41.3743 30.317 41.4092 30.317 41.4442C30.317 41.4791 30.1077 41.6188 29.6892 41.8634C29.2707 42.1079 28.9219 42.2826 28.6429 42.4573C28.3639 42.6319 27.9802 42.9114 27.4919 43.2957C27.0037 43.68 26.5154 44.1691 26.0271 44.728C25.9225 44.8328 25.8527 44.9726 25.7481 45.0774C25.6435 45.1822 25.5737 45.287 25.5388 45.3918C25.4691 45.4966 25.4342 45.5664 25.4342 45.5664C25.9225 45.0424 26.341 44.6581 26.7246 44.4136C27.1083 44.1691 27.4919 44.0293 27.9105 44.0293C28.329 44.0293 28.6778 44.1691 28.9219 44.4136C29.166 44.6931 29.3055 45.0424 29.3055 45.4966C29.3055 46.0206 29.1312 46.5795 28.7824 47.2084C28.4336 47.8372 27.9802 48.3612 27.4571 48.7804C26.9339 49.1996 26.4107 49.4092 25.8876 49.4092C25.5737 49.4092 25.2598 49.3044 24.9808 49.0599C24.7018 48.8153 24.4576 48.5009 24.2832 48.1167C24.1089 47.7324 24.0042 47.3481 24.0042 46.9289C24.0042 46.3699 24.2135 45.7411 24.5971 45.0424C24.9808 44.3437 25.5388 43.6101 26.3061 42.9464C27.0385 42.2826 27.9105 41.7236 28.887 41.2346ZM25.6086 48.3612C25.8527 48.3612 26.1666 48.1865 26.62 47.8721C27.0385 47.5577 27.4222 47.1385 27.7709 46.6843C28.0848 46.2302 28.2592 45.776 28.2592 45.3568C28.2592 44.9726 28.1197 44.7979 27.8407 44.7979C27.5268 44.7979 27.0037 45.0774 26.341 45.6712C25.9225 46.0206 25.6435 46.335 25.4342 46.6145C25.2598 46.894 25.1552 47.2084 25.1552 47.5926C25.1552 47.8721 25.1901 48.0468 25.2598 48.1865C25.3296 48.3263 25.4342 48.3612 25.6086 48.3612Z" fill="white"/>
<path d="M35.5472 41.4791C35.7564 41.5839 35.8959 41.7236 36.0006 41.9332C36.1052 42.1428 36.1401 42.4573 36.1401 42.8765C36.1401 43.5053 36.0006 44.204 35.7564 44.9376C35.5123 45.6712 35.1635 46.3699 34.7101 46.9987C34.2567 47.6276 33.7336 48.1516 33.1406 48.5708C32.478 49.0249 31.9548 49.2695 31.5363 49.2695C31.2224 49.2695 30.9085 49.1647 30.6295 48.99C30.3505 48.7804 30.1063 48.5009 29.932 48.1516C29.7576 47.8022 29.6878 47.3481 29.6878 46.859C29.6878 46.1603 29.8622 45.4616 30.2459 44.728C30.6295 43.9944 31.0829 43.2957 31.6758 42.7018C32.2338 42.1079 32.8616 41.6188 33.4894 41.3044C34.1172 40.99 34.6404 40.8503 35.0938 40.9551C35.3728 40.99 35.5123 41.1996 35.5472 41.4791ZM34.0126 42.8066L34.2567 42.3175C33.9777 42.4573 33.7684 42.597 33.5592 42.7018C33.3499 42.8415 33.1406 43.0162 32.8616 43.2608C32.5826 43.5053 32.3385 43.7848 32.0246 44.1691C31.5712 44.7629 31.2224 45.3568 30.9783 45.9158C30.7341 46.4747 30.6295 46.9638 30.6295 47.3481C30.6295 47.907 30.8039 48.1865 31.1875 48.1865C31.3968 48.1865 31.7107 48.0817 32.0943 47.8372C32.478 47.5926 32.9314 47.2782 33.3499 46.859C33.7684 46.4747 34.1521 46.0206 34.466 45.5315C34.7799 45.0424 35.024 44.5533 35.1984 44.0992C35.3728 43.6101 35.4425 43.2258 35.4425 42.8765C35.4425 42.6669 35.4077 42.4922 35.303 42.3874C35.1984 42.2826 35.0938 42.2127 34.9543 42.2127C34.8147 42.2127 34.6752 42.2477 34.5357 42.3525C34.4311 42.4223 34.2567 42.597 34.0126 42.8066Z" fill="white"/>
<path d="M39.3167 16.3961H33.283L38.5145 13.3918C38.6889 13.287 38.7238 13.0774 38.654 12.9376C38.5494 12.763 38.3401 12.728 38.2006 12.7979L32.9691 15.8023L35.9685 10.5621C36.0731 10.3874 36.0034 10.1778 35.829 10.1079C35.6546 10.0031 35.4453 10.073 35.3756 10.2477L32.3762 15.4878V9.44418C32.3762 9.26951 32.2366 9.09483 32.0274 9.09483C31.853 9.09483 31.6786 9.23457 31.6786 9.44418V15.4878L28.6792 10.2477C28.5746 10.073 28.3653 10.0381 28.2258 10.1079C28.0514 10.2127 28.0165 10.4223 28.0863 10.5621L31.0857 15.8023L25.8542 12.7979C25.6798 12.6931 25.4705 12.763 25.4008 12.9376C25.2961 13.1123 25.3659 13.3219 25.5403 13.3918L30.7718 16.3961H24.7381C24.5637 16.3961 24.3893 16.5359 24.3893 16.7455C24.3893 16.9202 24.5288 17.0948 24.7381 17.0948H39.3167C39.4911 17.0948 39.6654 16.9551 39.6654 16.7455C39.6654 16.5708 39.5259 16.3961 39.3167 16.3961Z" fill="white"/>
<path d="M43.4309 19.3657H20.6562L25.0856 23.9421V21.6713H39.0015V23.9421L43.4309 19.3657Z" fill="white"/>
<path d="M18.1784 26.2128L22.6078 30.8241H22.6426V28.3787H41.4413V30.8241H41.4762L45.9056 26.2128H18.1784Z" fill="white"/>
<path d="M16.5052 33.0948L20.9346 37.7062V35.2258H43.1164V37.7062H43.1512L47.5806 33.0948H16.5052Z" fill="white"/>
<path d="M7.26168 21.9158L4.26226 20.8328L6.42463 24.2564L6.11074 25.1298L1.40234 23.4529L1.75111 22.4398L4.75053 23.5228L2.58816 20.0992L2.90205 19.2258L7.64533 20.9027L7.26168 21.9158Z" fill="white"/>
<path d="M10.6454 15.8372L10.0525 16.7455L8.30866 15.6276L7.19259 17.4442L8.93644 18.5621L8.34354 19.4704L4.08854 16.7804L4.68145 15.8721L6.39042 16.9551L7.54136 15.1385L5.83239 14.0206L6.4253 13.1123L10.6454 15.8372Z" fill="white"/>
<path d="M10.3675 8.74543C10.5767 8.64062 10.786 8.53582 10.9604 8.50088C11.1348 8.46595 11.3091 8.43102 11.4486 8.43102C11.5881 8.43102 11.7277 8.43102 11.7974 8.43102H11.9369V9.40918C11.902 9.40918 11.8672 9.40918 11.8323 9.40918C11.7974 9.40918 11.7277 9.40918 11.5882 9.40918C11.4835 9.40918 11.344 9.44412 11.2394 9.44412C11.1347 9.47905 10.9952 9.51399 10.8209 9.61879C10.6814 9.68866 10.5418 9.79346 10.4023 9.9332C10.0536 10.2825 9.91406 10.6668 9.91406 11.121C9.91406 11.5751 10.0884 11.9594 10.4023 12.2738C10.7511 12.6232 11.1348 12.7629 11.5882 12.7629C12.0416 12.7629 12.4252 12.5882 12.7391 12.2738C12.8786 12.1341 12.9832 11.9943 13.053 11.8546C13.1227 11.7149 13.1925 11.5751 13.2274 11.4354C13.2622 11.2956 13.2622 11.1908 13.2971 11.086C13.2971 10.9812 13.2971 10.8764 13.2971 10.8415V10.7367L14.2388 10.7716C14.2388 10.8066 14.2388 10.8415 14.2737 10.9114C14.2737 10.9812 14.2737 11.086 14.2737 11.2607C14.2737 11.4354 14.2388 11.6101 14.2039 11.7847C14.169 11.9594 14.0644 12.1341 13.9598 12.3786C13.8552 12.6232 13.6808 12.7978 13.5064 13.0074C12.9484 13.5664 12.3206 13.8459 11.5882 13.8459C10.8557 13.8459 10.2279 13.6013 9.70479 13.1122C9.18164 12.5882 8.9375 11.9943 8.9375 11.2258C8.9375 10.4922 9.21652 9.86333 9.77455 9.30438C9.94893 9.0249 10.1582 8.88516 10.3675 8.74543Z" fill="white"/>
<path d="M15.9126 4.51842L16.4706 5.32191L15.2848 6.12541L17.5518 9.47912L16.645 10.073L14.378 6.71929L13.1921 7.52279L12.6341 6.71929L15.9126 4.51842Z" fill="white"/>
<path d="M22.8525 6.82404L21.6318 3.88954L20.5855 7.80221L19.7135 8.15155L17.7604 3.50526L18.7718 3.08605L19.9925 6.05548L21.0389 2.14282L21.9108 1.79347L23.8639 6.43976L22.8525 6.82404Z" fill="white"/>
<path d="M27.8404 0.396103L28.0148 1.33933L26.6197 1.61881L27.4219 5.60134L26.3755 5.81095L25.5734 1.82842L24.1783 2.10789L24.0039 1.16466L27.8404 0.396103Z" fill="white"/>
<path d="M31.6766 2.52714L32.6532 0.116661L33.8041 0.0817261L32.13 3.88959C31.9207 4.34374 31.7115 4.65815 31.4325 4.90269C31.1534 5.14723 30.8047 5.25203 30.421 5.25203C30.3164 5.25203 30.2466 5.25203 30.142 5.2171C30.0374 5.2171 29.9676 5.18216 29.9328 5.18216L29.863 5.14723L29.8281 4.204C29.9328 4.23893 30.1071 4.27387 30.2466 4.27387C30.5954 4.27387 30.8744 4.09919 31.0488 3.74985L31.1883 3.50531L29.3398 0.151595L30.4908 0.116661L31.6766 2.52714Z" fill="white"/>
<path d="M39.104 0.885277L38.9645 1.86344L37.5346 1.65383L36.8719 5.63637L35.8256 5.4617L36.4534 1.44423L35.0234 1.23462L35.1629 0.256454L39.104 0.885277Z" fill="white"/>
<path d="M43.3954 4.58825L46.081 3.40048L47.2319 3.9245L44.6859 5.07734L45.3137 8.60572L44.1627 8.0817L43.6745 5.49655L42.8025 5.88083L42.2096 7.20834L41.2331 6.75419L43.2908 2.14284L44.2674 2.59699L43.3954 4.58825Z" fill="white"/>
<path d="M48.9076 11.0861L50.791 8.50096L46.9196 9.61886L46.1523 9.05991L49.1169 5.00751L49.9888 5.63633L48.1055 8.22148L51.9768 7.10358L52.7441 7.66253L49.7796 11.7149L48.9076 11.0861Z" fill="white"/>
<path d="M56.9629 12.0293L56.2305 12.6931L55.254 11.645L52.2546 14.3699L51.5221 13.5664L54.5216 10.8415L53.545 9.7935L54.2774 9.12975L56.9629 12.0293Z" fill="white"/>
<path d="M55.4607 16.5358L54.24 16.7804L53.6471 15.8022L58.9484 14.859L59.5414 15.8372L56.2978 20.169L55.7049 19.1909L56.4722 18.2127L55.4607 16.5358ZM58.1811 16.0118L56.4373 16.3612L57.0651 17.4092L58.1811 16.0118Z" fill="white"/>
<path d="M57.9732 24.6757L57.6244 23.6626L59.2637 23.0687L58.9498 22.1953L56.9618 21.8809L56.5781 20.798L58.7405 21.1473C58.7405 21.1124 58.7405 21.0774 58.7405 21.0425C58.7405 21.0076 58.7754 20.9028 58.8102 20.798C58.8451 20.6582 58.9149 20.5534 58.9846 20.4486C59.0544 20.3438 59.159 20.239 59.2985 20.0993C59.438 19.9945 59.6124 19.8897 59.7868 19.8198C60.2402 19.6451 60.6587 19.68 61.0424 19.8897C61.426 20.0993 61.7399 20.4137 61.9143 20.9028L62.6816 22.9988L57.9732 24.6757ZM59.8217 21.1473C59.7519 21.322 59.7519 21.4966 59.8217 21.6713L60.2053 22.7193L61.4609 22.2652L61.0773 21.2172C61.0075 21.0425 60.9029 20.9028 60.7285 20.8329C60.5541 20.763 60.3797 20.763 60.2053 20.8329C59.9961 20.8678 59.8914 21.0076 59.8217 21.1473Z" fill="white"/>
<path d="M3.77509 34.2826L0.113003 34.3525V33.7935L2.86828 33.7236L0.078125 31.4878V30.9988L3.74021 30.9289V31.4878L0.984928 31.5577L3.77509 33.7935V34.2826Z" fill="white"/>
<path d="M3.74045 37.3568C4.19385 37.6363 4.47287 38.0206 4.5775 38.5446C4.64725 38.8241 4.64725 39.1036 4.5775 39.383C4.50775 39.6625 4.43799 39.8721 4.33336 40.0119L4.19385 40.2215L3.74045 39.9071C3.74045 39.9071 3.77533 39.8721 3.77533 39.8372C3.81021 39.8023 3.84508 39.7673 3.87996 39.6625C3.94971 39.5927 3.98459 39.4879 4.01947 39.383C4.05435 39.2782 4.08922 39.1734 4.08922 39.0337C4.08922 38.894 4.08922 38.7542 4.05434 38.6145C3.98459 38.2651 3.77533 37.9857 3.46144 37.7761C3.14754 37.5665 2.79877 37.5315 2.38025 37.6014C1.9966 37.7062 1.68271 37.8809 1.50832 38.2302C1.29906 38.5446 1.22931 38.894 1.33394 39.2433C1.36882 39.4529 1.47345 39.6625 1.61296 39.8372C1.75246 40.0119 1.89197 40.1167 1.9966 40.1865L2.17099 40.2913L1.92685 40.7455C1.89197 40.7455 1.85709 40.7106 1.82222 40.7106C1.78734 40.6756 1.71759 40.6407 1.61296 40.5359C1.50832 40.466 1.40369 40.3612 1.33394 40.2564C1.22931 40.1516 1.15956 40.0468 1.05492 39.8721C0.950293 39.6975 0.880538 39.5228 0.845661 39.3481C0.74103 38.859 0.810785 38.3699 1.0898 37.9158C1.36882 37.4616 1.75246 37.1822 2.27562 37.0774C2.79877 37.0075 3.28705 37.0774 3.74045 37.3568Z" fill="white"/>
<path d="M4.75273 41.3394C5.241 41.549 5.58977 41.8983 5.76416 42.4223C5.97342 42.9114 5.97342 43.4354 5.76416 43.8896C5.5549 44.3787 5.20613 44.728 4.71785 44.9027C4.22957 45.1123 3.74129 45.0774 3.25302 44.8677C2.76474 44.6581 2.45084 44.3088 2.24158 43.7848C2.03232 43.2957 2.03232 42.7717 2.24158 42.3175C2.45084 41.8284 2.79961 41.4791 3.28789 41.3044C3.81105 41.1298 4.29932 41.1298 4.75273 41.3394ZM5.31076 43.68C5.45026 43.3306 5.48514 42.9813 5.34563 42.6319C5.20613 42.2826 4.96199 42.038 4.61322 41.8634C4.26445 41.7236 3.91568 41.7236 3.53203 41.8634C3.18326 42.0031 2.90424 42.2477 2.76474 42.597C2.62523 42.9463 2.59035 43.2957 2.72986 43.645C2.86937 43.9944 3.11351 44.2389 3.46228 44.4136C3.81105 44.5533 4.15982 44.5533 4.54346 44.4136C4.89223 44.2739 5.13637 44.0293 5.31076 43.68Z" fill="white"/>
<path d="M7.75174 46.6145C7.92612 46.9289 7.99588 47.2084 7.92612 47.4879C7.89125 47.7673 7.71686 47.9769 7.5076 48.1167C7.36809 48.1865 7.22859 48.2215 7.08908 48.2215C6.94957 48.2215 6.81006 48.1865 6.74031 48.1516L6.63568 48.0817C6.63568 48.0817 6.63568 48.1167 6.63568 48.1516C6.63568 48.1865 6.63568 48.2564 6.63568 48.3263C6.63568 48.3961 6.63568 48.501 6.6008 48.5708C6.56592 48.6407 6.53105 48.7455 6.46129 48.8154C6.39154 48.9202 6.28691 48.99 6.18227 49.0599C5.90326 49.2346 5.62424 49.2695 5.34523 49.1647C5.06621 49.0599 4.82207 48.8503 4.64769 48.5359L3.74089 46.9638L6.87981 45.1123L7.75174 46.6145ZM5.48474 46.5446L4.43843 47.1734L5.06621 48.2564C5.17084 48.4311 5.31035 48.5708 5.44986 48.6058C5.58937 48.6407 5.76375 48.6407 5.93814 48.5359C6.11252 48.4311 6.21715 48.3263 6.25203 48.1516C6.28691 48.0119 6.25203 47.8372 6.1474 47.6276L5.48474 46.5446ZM7.33322 46.859L6.74031 45.8459L5.90326 46.335L6.49617 47.3481C6.70543 47.6975 6.94957 47.7673 7.22858 47.6276C7.47272 47.4529 7.54248 47.2084 7.33322 46.859Z" fill="white"/>
<path d="M5.2407 52.3437L4.89193 51.9245L8.97253 48.6057L9.3213 49.0249L8.8679 49.3743C8.90278 49.3743 8.90278 49.3743 8.97253 49.3743C9.00741 49.3743 9.07717 49.3743 9.21667 49.4092C9.32131 49.4441 9.42593 49.4441 9.53057 49.4791C9.6352 49.514 9.7747 49.5839 9.87934 49.6887C10.0188 49.7935 10.1235 49.8983 10.2281 50.0031C10.542 50.3874 10.6466 50.8415 10.6118 51.3655C10.542 51.8896 10.3327 52.3088 9.91421 52.6581C9.49569 52.9725 9.04229 53.1472 8.51913 53.0773C7.99598 53.0424 7.57745 52.8328 7.26356 52.4485C7.15893 52.3088 7.08918 52.169 7.01942 52.0293C6.94967 51.8896 6.91479 51.7498 6.91479 51.645C6.91479 51.5402 6.87991 51.4005 6.87991 51.3306C6.87991 51.2258 6.87991 51.1559 6.87991 51.0861L6.91479 51.0162L5.2407 52.3437ZM7.40307 51.121C7.36819 51.5053 7.43795 51.8546 7.64721 52.0992C7.85647 52.3437 8.13549 52.4834 8.51913 52.5184C8.90278 52.5533 9.25155 52.4485 9.53057 52.204C9.84446 51.9594 10.0188 51.645 10.0537 51.2607C10.0886 50.8765 10.0188 50.562 9.80958 50.3175C9.60032 50.038 9.28643 49.8983 8.90278 49.8634C8.51913 49.8284 8.17036 49.9332 7.89135 50.1778C7.61233 50.3874 7.47282 50.7018 7.40307 51.121Z" fill="white"/>
<path d="M10.855 53.811C10.6457 54.0555 10.576 54.3699 10.6109 54.7193C10.6457 55.0686 10.7853 55.383 11.0643 55.5927C11.2387 55.7673 11.4479 55.8721 11.6572 55.9071C11.8664 55.9769 12.0408 55.9769 12.1803 55.9769L12.3896 55.942L12.4245 56.4311C12.3896 56.4311 12.3547 56.4311 12.3198 56.466C12.285 56.466 12.1803 56.466 12.0408 56.466C11.9013 56.466 11.7967 56.466 11.6572 56.4311C11.5177 56.3961 11.3782 56.3612 11.2038 56.2564C11.0294 56.1865 10.8899 56.0817 10.7155 55.942C10.3319 55.5926 10.1226 55.1734 10.0877 54.6494C10.0528 54.1254 10.2272 53.6713 10.576 53.252C10.9248 52.8678 11.3782 52.6582 11.9013 52.6232C12.4245 52.5883 12.8779 52.728 13.2615 53.0774C13.6452 53.4267 13.8544 53.8459 13.8893 54.335C13.9242 54.8241 13.7498 55.2782 13.401 55.6625L13.1918 55.8372L10.855 53.811ZM12.0408 53.1822C11.6921 53.1822 11.413 53.287 11.1689 53.4966L13.0871 55.2084C13.2615 54.9289 13.3661 54.6494 13.3313 54.335C13.2964 54.0206 13.1569 53.7411 12.9127 53.5315C12.6686 53.287 12.3547 53.1822 12.0408 53.1822Z" fill="white"/>
<path d="M15.5283 58.2476L15.2492 56.0817L13.8193 58.3873L13.3659 58.1079L15.319 54.9987L15.7026 55.2432L16.0165 57.5839L18.2487 56.8502L18.6323 57.0948L16.6792 60.2039L16.2258 59.9245L17.6558 57.6188L15.5283 58.2476Z" fill="white"/>
<path d="M19.1559 59.5751C19.0513 59.8895 19.0513 60.2039 19.2257 60.5183C19.3652 60.8328 19.6093 61.0773 19.9232 61.217C20.1325 61.3218 20.3766 61.3568 20.5859 61.3218C20.83 61.3218 20.9695 61.252 21.109 61.217L21.2834 61.1472L21.4927 61.6013C21.4578 61.6013 21.4229 61.6362 21.388 61.6362C21.3532 61.6712 21.2485 61.7061 21.1439 61.7411C21.0044 61.776 20.8998 61.8109 20.7603 61.8109C20.6208 61.8109 20.4812 61.8109 20.272 61.8109C20.0976 61.776 19.8883 61.741 19.714 61.6712C19.2257 61.4616 18.9118 61.1122 18.7025 60.6581C18.4933 60.169 18.4933 59.6799 18.7025 59.1908C18.9118 58.7018 19.2606 58.3524 19.7488 58.1428C20.2371 57.9332 20.6905 57.9332 21.1788 58.1428C21.6671 58.3524 21.981 58.6668 22.1902 59.121C22.3646 59.5751 22.3646 60.0293 22.1553 60.5183L22.0158 60.7629L19.1559 59.5751ZM20.0278 58.562C19.714 58.6668 19.4698 58.8764 19.3303 59.121L21.7019 60.0991C21.8066 59.7847 21.7717 59.4703 21.6322 59.1908C21.4927 58.9114 21.2834 58.7018 20.9695 58.562C20.6556 58.4572 20.3417 58.4572 20.0278 58.562Z" fill="white"/>
<path d="M25.8872 61.8459L23.7597 61.3219L23.376 62.894L22.8529 62.7542L23.7248 59.1909L24.2479 59.3307L23.8643 60.8678L25.9918 61.3918L26.3754 59.8547L26.9335 59.9944L26.0615 63.5577L25.5035 63.418L25.8872 61.8459Z" fill="white"/>
<path d="M30.6294 62.4398L28.4671 62.2652L28.3276 63.8721L27.7695 63.8372L28.0485 60.204L28.6066 60.239L28.4671 61.811L30.6294 61.9857L30.769 60.4136L31.327 60.4486L31.048 64.0818L30.4899 64.0468L30.6294 62.4398Z" fill="white"/>
<path d="M32.8971 60.9026C33.2459 60.5183 33.6993 60.2738 34.2225 60.2388C34.7456 60.2039 35.2339 60.3437 35.6175 60.693C36.0361 61.0423 36.2453 61.4616 36.2802 61.9856C36.3151 62.5096 36.1756 62.9987 35.8268 63.383C35.478 63.7672 35.0246 64.0118 34.5015 64.0467C33.9783 64.0816 33.49 63.9419 33.0715 63.5926C32.653 63.2432 32.4437 62.824 32.4089 62.3C32.4089 61.741 32.5484 61.2869 32.8971 60.9026ZM35.2688 61.0423C34.9898 60.7978 34.641 60.693 34.2573 60.7279C33.8737 60.7629 33.5598 60.9026 33.3157 61.217C33.0715 61.4965 32.9669 61.8458 33.0018 62.2301C33.0366 62.6144 33.211 62.9288 33.49 63.2083C33.7691 63.4528 34.1178 63.5576 34.5015 63.5576C34.8851 63.5227 35.199 63.3829 35.4432 63.0685C35.6873 62.7891 35.7919 62.4397 35.757 62.0205C35.7222 61.6362 35.5827 61.3218 35.2688 61.0423Z" fill="white"/>
<path d="M40.3269 59.1909L41.1988 62.7542L40.6408 62.8939L39.9781 60.2389L38.4087 63.4529L37.9553 63.5577L37.0833 59.9944L37.6065 59.8546L38.2692 62.5097L39.8386 59.2957L40.3269 59.1909ZM38.8969 58.3175C38.9667 58.1778 39.0016 58.0031 38.9318 57.8284L39.3503 57.7236C39.4201 58.0031 39.3852 58.2826 39.2457 58.5271C39.1062 58.7717 38.8621 58.9114 38.5482 58.9813C38.2343 59.0511 37.9553 59.0162 37.746 58.8765C37.5367 58.7367 37.3623 58.5271 37.2926 58.2127L37.7111 58.1079C37.746 58.3175 37.8506 58.4573 37.9901 58.5271C38.1296 58.597 38.304 58.6319 38.4784 58.5621C38.6528 58.5621 38.7923 58.4573 38.8969 58.3175Z" fill="white"/>
<path d="M44.6508 59.8546L44.7555 61.4616L44.1974 61.7411L43.8138 55.942L44.3021 55.6974L48.7663 59.4005L48.2083 59.68L46.9876 58.6319L44.6508 59.8546ZM44.4416 56.5359L44.616 59.2608L46.5342 58.2826L44.4416 56.5359Z" fill="white"/>
<path d="M50.2668 55.418C50.3017 55.5228 50.3017 55.6276 50.2668 55.6975C50.2668 55.7673 50.2319 55.8372 50.1971 55.9071C50.1622 55.9769 50.1622 56.0119 50.1273 56.0468L50.0924 56.0817C50.1273 56.0817 50.1273 56.0468 50.1622 56.0468C50.1971 56.0468 50.2668 56.0119 50.3366 56.0119C50.4412 56.0119 50.511 55.9769 50.6156 56.0119C50.7202 56.0119 50.79 56.0468 50.9295 56.1167C51.0341 56.1865 51.1387 56.2564 51.2085 56.3961C51.3829 56.6407 51.4526 56.9202 51.348 57.2695C51.2783 57.5839 51.0341 57.8983 50.6505 58.1778C50.511 58.2826 50.3366 58.3525 50.1971 58.4223C50.0576 58.4922 49.8832 58.5271 49.7785 58.5271C49.639 58.5271 49.5344 58.5621 49.4298 58.5271C49.3251 58.5271 49.2554 58.5271 49.1856 58.4922L49.1159 58.4573L49.2205 57.9682C49.2554 57.9682 49.3251 58.0031 49.3949 58.0031C49.4646 58.0031 49.6042 58.0031 49.8134 57.9682C50.0227 57.9333 50.1971 57.8634 50.3714 57.7237C50.6156 57.549 50.7551 57.3743 50.8249 57.1996C50.8946 57.025 50.8597 56.8503 50.7551 56.7106C50.6505 56.5708 50.511 56.5009 50.3017 56.5009C50.1273 56.5009 49.8832 56.6057 49.639 56.7804L49.2903 57.025L49.0112 56.6407L49.36 56.3961C49.5344 56.2564 49.6739 56.1167 49.7088 55.942C49.7437 55.7673 49.7437 55.6276 49.639 55.4878C49.5344 55.3481 49.4298 55.2782 49.2554 55.2782C49.081 55.2782 48.9066 55.3481 48.7322 55.4878C48.5927 55.5926 48.4881 55.7324 48.3835 55.8721C48.2788 56.0119 48.2439 56.1516 48.2439 56.2564L48.2091 56.3961L47.651 56.3263C47.651 56.2564 47.6859 56.1865 47.6859 56.1167C47.7208 56.0119 47.7906 55.8721 47.9301 55.6625C48.0696 55.4529 48.244 55.2433 48.4532 55.1036C48.7671 54.859 49.081 54.7892 49.3949 54.7892C49.7088 54.8241 49.9529 54.9289 50.1273 55.1734C50.1971 55.2084 50.2319 55.3132 50.2668 55.418Z" fill="white"/>
<path d="M52.8466 51.2957L55.3926 53.9157L55.009 54.3L53.0908 52.3088L53.3349 55.8721L52.9861 56.1865L50.4401 53.5664L50.8238 53.1821L52.742 55.1734L52.4978 51.6101L52.8466 51.2957Z" fill="white"/>
<path d="M55.6726 47.7323L58.6023 49.9332L58.2535 50.3874L56.0563 48.7454L56.8584 52.2389L56.5794 52.6232L53.6497 50.4223L53.9985 49.9682L56.1958 51.6101L55.3936 48.1166L55.6726 47.7323Z" fill="white"/>
<path d="M56.4745 42.597C56.6838 42.1428 56.9977 41.7935 57.4162 41.6188C57.8347 41.4441 58.2881 41.4441 58.7066 41.6537C59.1252 41.8633 59.4391 42.1778 59.5786 42.597C59.7181 43.0511 59.7181 43.5053 59.5088 43.9594L58.881 45.3219L60.6946 46.1254L60.4505 46.6843L55.5677 44.5184L56.4745 42.597ZM56.3699 44.204L58.4625 45.1472L59.0903 43.7847C59.2298 43.4703 59.2647 43.1559 59.16 42.8764C59.0554 42.597 58.8461 42.3874 58.5322 42.2476C58.2184 42.1079 57.9045 42.1079 57.6603 42.2127C57.3813 42.3175 57.172 42.562 57.0325 42.8764L56.3699 44.204Z" fill="white"/>
<path d="M61.3924 40.3612L62.6828 41.3044L62.5433 41.9332L57.8698 38.4747L58.0093 37.9507L63.7291 36.9376L63.5896 37.5664L61.9853 37.8459L61.3924 40.3612ZM58.7068 38.4048L60.9041 40.0118L61.3924 37.9158L58.7068 38.4048Z" fill="white"/>
<path d="M58.5677 35.0512L58.6026 34.4573L60.9742 34.5271L61.0788 31.4529L58.7072 31.383L58.7421 30.7892L64.0783 30.9638L64.0434 31.5577L61.602 31.4878L61.4974 34.5621L63.9388 34.632L63.9039 35.2258L58.5677 35.0512Z" fill="white"/>
<path d="M24.5277 43.156C24.4928 43.156 24.4579 43.156 24.4231 43.1909L24.3533 43.2258C24.2487 43.2608 24.1789 43.2957 24.0743 43.3656C23.3768 43.7499 22.749 44.204 22.1561 44.6582C20.9702 45.5665 20.1332 46.4748 19.5054 47.4879C18.8079 48.5708 18.5289 49.6189 18.5986 50.7018C18.7032 51.9245 19.2613 52.8328 20.2727 53.3918C20.9005 53.7411 21.6329 53.9507 22.5048 54.0206C22.6095 54.0206 22.749 54.0206 22.8536 54.0206C22.9582 54.0206 23.028 54.0206 23.1326 54.0206C23.2373 54.0206 23.307 54.0206 23.4116 54.0206H24.3184L23.4465 53.7411C23.4116 53.7411 23.4116 53.7411 23.3768 53.7062C22.6443 53.5315 22.0166 53.287 21.4585 52.9726C20.8656 52.6232 20.4471 52.2739 20.1332 51.8197C19.6449 51.0861 19.5403 50.3176 19.8193 49.4093C19.9937 48.7804 20.3425 48.1516 20.8307 47.4529C21.598 46.37 22.5048 45.4617 23.307 44.728C23.6558 44.4136 24.0045 44.0643 24.3533 43.7499C24.4231 43.68 24.4928 43.6101 24.5626 43.5403L24.9113 43.156H24.5277Z" stroke="white" stroke-width="0.156" stroke-miterlimit="10"/>
<path d="M38.5836 38.7193C38.6534 38.7193 38.758 38.7193 38.8278 38.7193C38.8626 38.7193 38.8626 38.7542 38.8975 38.7542C38.8626 38.7892 38.8626 38.8241 38.8278 38.8241C38.758 38.859 38.7231 38.859 38.6534 38.859C37.6071 39.0686 36.5608 39.2433 35.5145 39.4529C34.1891 39.7324 32.8987 40.1865 31.6431 40.6756C31.5385 40.7106 31.399 40.7804 31.2943 40.8154C31.1548 40.8503 31.0502 40.8154 31.0153 40.7105C30.9456 40.5359 31.0153 40.3961 31.1548 40.3263C31.2943 40.2564 31.4687 40.2215 31.6082 40.1865C33.0731 39.7324 34.5379 39.3481 36.0376 39.0686C36.8747 38.894 37.7117 38.7892 38.5836 38.7193Z" stroke="white" stroke-width="0.156" stroke-miterlimit="10"/>
<path d="M38.7587 44.1342H38.3402L38.5494 43.8198H39.1075V46.1604H38.7587V44.1342Z" stroke="white" stroke-width="0.156" stroke-miterlimit="10"/>
<path d="M40.1531 46.2302L39.909 46.0556L40.467 45.3569C40.4321 45.3569 40.3973 45.3569 40.3275 45.3569C40.1183 45.3569 39.9439 45.287 39.7695 45.1473C39.63 45.0075 39.5602 44.8329 39.5602 44.6233C39.5602 44.3787 39.63 44.204 39.8044 44.0294C39.9439 43.8547 40.1531 43.7848 40.3973 43.7848C40.6414 43.7848 40.8507 43.8547 40.9902 44.0294C41.1297 44.1691 41.1994 44.3438 41.1994 44.5534C41.1994 44.6931 41.1646 44.8678 41.0948 45.0075C41.0948 45.0425 41.0599 45.0774 41.0599 45.1123C41.0599 45.1473 41.0251 45.1822 40.9902 45.2171C40.9553 45.2521 40.9553 45.287 40.9553 45.287C40.9553 45.287 40.9204 45.3219 40.8855 45.3569C40.8507 45.3918 40.8507 45.4267 40.8158 45.4267L40.1531 46.2302ZM40.3624 45.0425C40.5019 45.0425 40.6065 45.0075 40.7112 44.9027C40.8158 44.7979 40.8507 44.6931 40.8507 44.5534C40.8507 44.4136 40.8158 44.3088 40.7112 44.239C40.6065 44.1342 40.5019 44.0992 40.3973 44.0992C40.2926 44.0992 40.1531 44.1342 40.0834 44.239C39.9787 44.3438 39.9439 44.4486 39.9439 44.5883C39.9439 44.7281 39.9787 44.8329 40.0834 44.9377C40.1183 45.0075 40.2229 45.0425 40.3624 45.0425Z" stroke="white" stroke-width="0.156" stroke-miterlimit="10"/>
<path d="M42.4891 43.7498L42.7332 43.9245L42.1752 44.6232C42.21 44.6232 42.2798 44.6232 42.3147 44.6232C42.5239 44.6232 42.6983 44.693 42.8378 44.8328C42.9773 44.9725 43.0471 45.1472 43.0471 45.3917C43.0471 45.6363 42.9773 45.8109 42.803 45.9856C42.6635 46.1254 42.4542 46.1952 42.21 46.1952C41.9659 46.1952 41.7566 46.1254 41.6171 45.9856C41.4776 45.8459 41.4079 45.6712 41.4079 45.4616C41.4079 45.3219 41.4428 45.1472 41.5125 45.0075C41.5125 44.9725 41.5474 44.9376 41.5474 44.9027C41.5474 44.8677 41.5823 44.8328 41.6171 44.7979C41.652 44.7629 41.652 44.728 41.652 44.728C41.652 44.728 41.6869 44.693 41.7218 44.6581C41.7566 44.6232 41.7566 44.5882 41.7915 44.5882L42.4891 43.7498ZM42.2798 44.9027C42.1403 44.9027 42.0357 44.9376 41.931 45.0424C41.8264 45.1123 41.7915 45.252 41.7915 45.3917C41.7915 45.5315 41.8264 45.6363 41.931 45.7411C42.0357 45.811 42.1403 45.8808 42.2798 45.8808C42.4193 45.8808 42.5239 45.8459 42.5937 45.7411C42.6983 45.6363 42.7332 45.5315 42.7332 45.3917C42.7332 45.252 42.6983 45.1472 42.5937 45.0424C42.4891 44.9725 42.3844 44.9027 42.2798 44.9027Z" stroke="white" stroke-width="0.156" stroke-miterlimit="10"/>
<path d="M44.4422 43.7498L44.6863 43.9245L44.1283 44.6232C44.1632 44.6232 44.2329 44.6232 44.2678 44.6232C44.4771 44.6232 44.6515 44.693 44.791 44.8328C44.9305 44.9725 45.0002 45.1472 45.0002 45.3917C45.0002 45.6363 44.9305 45.8109 44.7561 45.9856C44.6166 46.1254 44.4073 46.1952 44.1632 46.1952C43.919 46.1952 43.7098 46.1254 43.5703 45.9856C43.4308 45.8459 43.361 45.6712 43.361 45.4616C43.361 45.3219 43.3959 45.1472 43.4656 45.0075C43.4656 44.9725 43.5005 44.9376 43.5005 44.9027C43.5005 44.8677 43.5354 44.8328 43.5703 44.7979C43.6051 44.7629 43.6051 44.728 43.6051 44.728C43.6051 44.728 43.64 44.693 43.6749 44.6581C43.7098 44.6232 43.7098 44.5882 43.7447 44.5882L44.4422 43.7498ZM44.2329 44.9027C44.0934 44.9027 43.9888 44.9376 43.8842 45.0424C43.7795 45.1123 43.7447 45.252 43.7447 45.3917C43.7447 45.5315 43.7795 45.6363 43.8842 45.7411C43.9888 45.811 44.0934 45.8808 44.2329 45.8808C44.3724 45.8808 44.4771 45.8459 44.5468 45.7411C44.6515 45.6363 44.6863 45.5315 44.6863 45.3917C44.6863 45.252 44.6515 45.1472 44.5468 45.0424C44.4771 44.9725 44.3724 44.9027 44.2329 44.9027Z" stroke="white" stroke-width="0.156" stroke-miterlimit="10"/>
<path d="M39.5597 49.2345H37.9902L38.7924 48.2563C38.897 48.1166 39.0017 47.9769 39.0714 47.907C39.1412 47.8022 39.1761 47.6624 39.1761 47.5576C39.1761 47.4528 39.1412 47.348 39.0714 47.2782C39.0017 47.2083 38.897 47.1734 38.7924 47.1734C38.6529 47.1734 38.5831 47.2083 38.5134 47.2782C38.4436 47.348 38.4088 47.4528 38.4088 47.5926H38.06C38.06 47.383 38.1297 47.2083 38.2693 47.0686C38.4088 46.9288 38.5831 46.8589 38.8273 46.8589C39.0714 46.8589 39.2458 46.9288 39.3853 47.0686C39.5248 47.2083 39.5946 47.383 39.5946 47.5576C39.5946 47.7323 39.5248 47.872 39.4202 48.0467C39.3504 48.1515 39.2458 48.2913 39.1063 48.4659L38.7575 48.8852H39.5597V49.2345Z" stroke="white" stroke-width="0.156" stroke-miterlimit="10"/>
<path d="M40.8497 49.2695C40.6404 49.2695 40.4661 49.1996 40.3265 49.025C40.1173 48.8153 40.0475 48.5009 40.0475 48.0817C40.0475 47.6625 40.1522 47.3481 40.3265 47.1385C40.4661 46.9638 40.6404 46.894 40.8497 46.894C41.059 46.894 41.2333 46.9638 41.3729 47.1385C41.5821 47.3481 41.6519 47.6974 41.6519 48.0817C41.6519 48.5009 41.5472 48.8153 41.3729 49.025C41.2333 49.1996 41.059 49.2695 40.8497 49.2695ZM40.8497 47.2084C40.7102 47.2084 40.6056 47.2782 40.5358 47.383C40.4312 47.5577 40.3614 47.7673 40.3614 48.0817C40.3614 48.3961 40.4312 48.6057 40.5358 48.7804C40.6056 48.9201 40.7102 48.9551 40.8497 48.9551C40.9892 48.9551 41.0938 48.8852 41.1636 48.7804C41.2682 48.6057 41.338 48.3961 41.338 48.0817C41.338 47.7673 41.2682 47.5577 41.1636 47.383C41.059 47.2782 40.9543 47.2084 40.8497 47.2084Z" stroke="white" stroke-width="0.156" stroke-miterlimit="10"/>
<path d="M43.4998 49.2345H41.9303L42.7325 48.2563C42.8371 48.1166 42.9418 47.9769 43.0115 47.907C43.0813 47.8022 43.1162 47.6624 43.1162 47.5576C43.1162 47.4528 43.0813 47.348 43.0115 47.2782C42.9418 47.2083 42.8371 47.1734 42.7325 47.1734C42.593 47.1734 42.5232 47.2083 42.4535 47.2782C42.3837 47.348 42.3489 47.4528 42.3489 47.5926H42.0001C42.0001 47.383 42.0698 47.2083 42.2094 47.0686C42.3489 46.9288 42.5232 46.8589 42.7674 46.8589C43.0115 46.8589 43.1859 46.9288 43.3254 47.0686C43.4649 47.2083 43.5347 47.383 43.5347 47.5576C43.5347 47.7323 43.4649 47.872 43.3603 48.0467C43.2905 48.1515 43.1859 48.2913 43.0464 48.4659L42.6976 48.8852H43.4998V49.2345Z" stroke="white" stroke-width="0.156" stroke-miterlimit="10"/>
<path d="M44.8605 46.8589L45.1046 47.0336L44.5466 47.7323C44.5815 47.7323 44.6512 47.7323 44.6861 47.7323C44.8954 47.7323 45.0698 47.8022 45.2093 47.9419C45.3488 48.0817 45.4185 48.2563 45.4185 48.5009C45.4185 48.7454 45.3488 48.9201 45.1744 49.0948C45.0349 49.2345 44.8256 49.3044 44.5815 49.3044C44.3373 49.3044 44.1281 49.2345 43.9886 49.0948C43.8491 48.955 43.7793 48.7803 43.7793 48.5707C43.7793 48.431 43.8142 48.2563 43.8839 48.1166C43.8839 48.0817 43.9188 48.0467 43.9188 48.0118C43.9188 47.9769 43.9537 47.9419 43.9886 47.907C44.0234 47.872 44.0234 47.8371 44.0234 47.8371C44.0234 47.8371 44.0583 47.8022 44.0932 47.7672C44.1281 47.7323 44.1281 47.6974 44.1629 47.6974L44.8605 46.8589ZM44.6512 48.0118C44.5117 48.0118 44.4071 48.0467 44.3025 48.1515C44.1978 48.2214 44.1629 48.3611 44.1629 48.5009C44.1629 48.6406 44.1978 48.7454 44.3025 48.8502C44.4071 48.9201 44.5117 48.99 44.6512 48.99C44.7907 48.99 44.8954 48.955 44.9651 48.8502C45.0697 48.7454 45.1046 48.6406 45.1046 48.5009C45.1046 48.3611 45.0697 48.2563 44.9651 48.1515C44.8954 48.0817 44.7559 48.0118 44.6512 48.0118Z" stroke="white" stroke-width="0.156" stroke-miterlimit="10"/>
<path d="M28.887 41.2346L29.5846 41.2695C29.8636 41.3044 30.0728 41.3044 30.1775 41.3394C30.2821 41.3743 30.317 41.4092 30.317 41.4442C30.317 41.4791 30.1077 41.6188 29.6892 41.8634C29.2707 42.1079 28.9219 42.2826 28.6429 42.4573C28.3639 42.6319 27.9802 42.9114 27.4919 43.2957C27.0037 43.68 26.5154 44.1691 26.0271 44.728C25.9225 44.8328 25.8527 44.9726 25.7481 45.0774C25.6435 45.1822 25.5737 45.287 25.5388 45.3918C25.4691 45.4966 25.4342 45.5664 25.4342 45.5664C25.9225 45.0424 26.341 44.6581 26.7246 44.4136C27.1083 44.1691 27.4919 44.0293 27.9105 44.0293C28.329 44.0293 28.6778 44.1691 28.9219 44.4136C29.166 44.6931 29.3055 45.0424 29.3055 45.4966C29.3055 46.0206 29.1312 46.5795 28.7824 47.2084C28.4336 47.8372 27.9802 48.3612 27.4571 48.7804C26.9339 49.1996 26.4107 49.4092 25.8876 49.4092C25.5737 49.4092 25.2598 49.3044 24.9808 49.0599C24.7018 48.8153 24.4576 48.5009 24.2832 48.1167C24.1089 47.7324 24.0042 47.3481 24.0042 46.9289C24.0042 46.3699 24.2135 45.7411 24.5971 45.0424C24.9808 44.3437 25.5388 43.6101 26.3061 42.9464C27.0385 42.2826 27.9105 41.7236 28.887 41.2346ZM25.6086 48.3612C25.8527 48.3612 26.1666 48.1865 26.62 47.8721C27.0385 47.5577 27.4222 47.1385 27.7709 46.6843C28.0848 46.2302 28.2592 45.776 28.2592 45.3568C28.2592 44.9726 28.1197 44.7979 27.8407 44.7979C27.5268 44.7979 27.0037 45.0774 26.341 45.6712C25.9225 46.0206 25.6435 46.335 25.4342 46.6145C25.2598 46.894 25.1552 47.2084 25.1552 47.5926C25.1552 47.8721 25.1901 48.0468 25.2598 48.1865C25.3296 48.3263 25.4342 48.3612 25.6086 48.3612Z" stroke="white" stroke-width="0.156" stroke-miterlimit="10"/>
<path d="M35.5472 41.4791C35.7564 41.5839 35.8959 41.7236 36.0006 41.9332C36.1052 42.1428 36.1401 42.4573 36.1401 42.8765C36.1401 43.5053 36.0006 44.204 35.7564 44.9376C35.5123 45.6712 35.1635 46.3699 34.7101 46.9987C34.2567 47.6276 33.7336 48.1516 33.1406 48.5708C32.478 49.0249 31.9548 49.2695 31.5363 49.2695C31.2224 49.2695 30.9085 49.1647 30.6295 48.99C30.3505 48.7804 30.1063 48.5009 29.932 48.1516C29.7576 47.8022 29.6878 47.3481 29.6878 46.859C29.6878 46.1603 29.8622 45.4616 30.2459 44.728C30.6295 43.9944 31.0829 43.2957 31.6758 42.7018C32.2338 42.1079 32.8616 41.6188 33.4894 41.3044C34.1172 40.99 34.6404 40.8503 35.0938 40.9551C35.3728 40.99 35.5123 41.1996 35.5472 41.4791ZM34.0126 42.8066L34.2567 42.3175C33.9777 42.4573 33.7684 42.597 33.5592 42.7018C33.3499 42.8415 33.1406 43.0162 32.8616 43.2608C32.5826 43.5053 32.3385 43.7848 32.0246 44.1691C31.5712 44.7629 31.2224 45.3568 30.9783 45.9158C30.7341 46.4747 30.6295 46.9638 30.6295 47.3481C30.6295 47.907 30.8039 48.1865 31.1875 48.1865C31.3968 48.1865 31.7107 48.0817 32.0943 47.8372C32.478 47.5926 32.9314 47.2782 33.3499 46.859C33.7684 46.4747 34.1521 46.0206 34.466 45.5315C34.7799 45.0424 35.024 44.5533 35.1984 44.0992C35.3728 43.6101 35.4425 43.2258 35.4425 42.8765C35.4425 42.6669 35.4077 42.4922 35.303 42.3874C35.1984 42.2826 35.0938 42.2127 34.9543 42.2127C34.8147 42.2127 34.6752 42.2477 34.5357 42.3525C34.4311 42.4223 34.2567 42.597 34.0126 42.8066Z" stroke="white" stroke-width="0.156" stroke-miterlimit="10"/>
<path d="M39.3167 16.3961H33.283L38.5145 13.3918C38.6889 13.287 38.7238 13.0774 38.654 12.9376C38.5494 12.763 38.3401 12.728 38.2006 12.7979L32.9691 15.8023L35.9685 10.5621C36.0731 10.3874 36.0034 10.1778 35.829 10.1079C35.6546 10.0031 35.4453 10.073 35.3756 10.2477L32.3762 15.4878V9.44418C32.3762 9.26951 32.2366 9.09483 32.0274 9.09483C31.853 9.09483 31.6786 9.23457 31.6786 9.44418V15.4878L28.6792 10.2477C28.5746 10.073 28.3653 10.0381 28.2258 10.1079C28.0514 10.2127 28.0165 10.4223 28.0863 10.5621L31.0857 15.8023L25.8542 12.7979C25.6798 12.6931 25.4705 12.763 25.4008 12.9376C25.2961 13.1123 25.3659 13.3219 25.5403 13.3918L30.7718 16.3961H24.7381C24.5637 16.3961 24.3893 16.5359 24.3893 16.7455C24.3893 16.9202 24.5288 17.0948 24.7381 17.0948H39.3167C39.4911 17.0948 39.6654 16.9551 39.6654 16.7455C39.6654 16.5708 39.5259 16.3961 39.3167 16.3961Z" stroke="white" stroke-width="0.156" stroke-miterlimit="10"/>
<path d="M43.4309 19.3657H20.6562L25.0856 23.9421V21.6713H39.0015V23.9421L43.4309 19.3657Z" stroke="white" stroke-width="0.156" stroke-miterlimit="10"/>
<path d="M18.1784 26.2128L22.6078 30.8241H22.6426V28.3787H41.4413V30.8241H41.4762L45.9056 26.2128H18.1784Z" stroke="white" stroke-width="0.156" stroke-miterlimit="10"/>
<path d="M16.5052 33.0948L20.9346 37.7062V35.2258H43.1164V37.7062H43.1512L47.5806 33.0948H16.5052Z" stroke="white" stroke-width="0.156" stroke-miterlimit="10"/>
<path d="M7.26168 21.9158L4.26226 20.8328L6.42463 24.2564L6.11074 25.1298L1.40234 23.4529L1.75111 22.4398L4.75053 23.5228L2.58816 20.0992L2.90205 19.2258L7.64533 20.9027L7.26168 21.9158Z" stroke="white" stroke-width="0.156" stroke-miterlimit="10"/>
<path d="M10.6454 15.8372L10.0525 16.7455L8.30866 15.6276L7.19259 17.4442L8.93644 18.5621L8.34354 19.4704L4.08854 16.7804L4.68145 15.8721L6.39042 16.9551L7.54136 15.1385L5.83239 14.0206L6.4253 13.1123L10.6454 15.8372Z" stroke="white" stroke-width="0.156" stroke-miterlimit="10"/>
<path d="M10.3675 8.74543C10.5767 8.64062 10.786 8.53582 10.9604 8.50088C11.1348 8.46595 11.3091 8.43102 11.4486 8.43102C11.5881 8.43102 11.7277 8.43102 11.7974 8.43102H11.9369V9.40918C11.902 9.40918 11.8672 9.40918 11.8323 9.40918C11.7974 9.40918 11.7277 9.40918 11.5882 9.40918C11.4835 9.40918 11.344 9.44412 11.2394 9.44412C11.1347 9.47905 10.9952 9.51399 10.8209 9.61879C10.6814 9.68866 10.5418 9.79346 10.4023 9.9332C10.0536 10.2825 9.91406 10.6668 9.91406 11.121C9.91406 11.5751 10.0884 11.9594 10.4023 12.2738C10.7511 12.6232 11.1348 12.7629 11.5882 12.7629C12.0416 12.7629 12.4252 12.5882 12.7391 12.2738C12.8786 12.1341 12.9832 11.9943 13.053 11.8546C13.1227 11.7149 13.1925 11.5751 13.2274 11.4354C13.2622 11.2956 13.2622 11.1908 13.2971 11.086C13.2971 10.9812 13.2971 10.8764 13.2971 10.8415V10.7367L14.2388 10.7716C14.2388 10.8066 14.2388 10.8415 14.2737 10.9114C14.2737 10.9812 14.2737 11.086 14.2737 11.2607C14.2737 11.4354 14.2388 11.6101 14.2039 11.7847C14.169 11.9594 14.0644 12.1341 13.9598 12.3786C13.8552 12.6232 13.6808 12.7978 13.5064 13.0074C12.9484 13.5664 12.3206 13.8459 11.5882 13.8459C10.8557 13.8459 10.2279 13.6013 9.70479 13.1122C9.18164 12.5882 8.9375 11.9943 8.9375 11.2258C8.9375 10.4922 9.21652 9.86333 9.77455 9.30438C9.94893 9.0249 10.1582 8.88516 10.3675 8.74543Z" stroke="white" stroke-width="0.156" stroke-miterlimit="10"/>
<path d="M15.9126 4.51842L16.4706 5.32191L15.2848 6.12541L17.5518 9.47912L16.645 10.073L14.378 6.71929L13.1921 7.52279L12.6341 6.71929L15.9126 4.51842Z" stroke="white" stroke-width="0.156" stroke-miterlimit="10"/>
<path d="M22.8525 6.82404L21.6318 3.88954L20.5855 7.80221L19.7135 8.15155L17.7604 3.50526L18.7718 3.08605L19.9925 6.05548L21.0389 2.14282L21.9108 1.79347L23.8639 6.43976L22.8525 6.82404Z" stroke="white" stroke-width="0.156" stroke-miterlimit="10"/>
<path d="M27.8404 0.396103L28.0148 1.33933L26.6197 1.61881L27.4219 5.60134L26.3755 5.81095L25.5734 1.82842L24.1783 2.10789L24.0039 1.16466L27.8404 0.396103Z" stroke="white" stroke-width="0.156" stroke-miterlimit="10"/>
<path d="M31.6766 2.52714L32.6532 0.116661L33.8041 0.0817261L32.13 3.88959C31.9207 4.34374 31.7115 4.65815 31.4325 4.90269C31.1534 5.14723 30.8047 5.25203 30.421 5.25203C30.3164 5.25203 30.2466 5.25203 30.142 5.2171C30.0374 5.2171 29.9676 5.18216 29.9328 5.18216L29.863 5.14723L29.8281 4.204C29.9328 4.23893 30.1071 4.27387 30.2466 4.27387C30.5954 4.27387 30.8744 4.09919 31.0488 3.74985L31.1883 3.50531L29.3398 0.151595L30.4908 0.116661L31.6766 2.52714Z" stroke="white" stroke-width="0.156" stroke-miterlimit="10"/>
<path d="M39.104 0.885277L38.9645 1.86344L37.5346 1.65383L36.8719 5.63637L35.8256 5.4617L36.4534 1.44423L35.0234 1.23462L35.1629 0.256454L39.104 0.885277Z" stroke="white" stroke-width="0.156" stroke-miterlimit="10"/>
<path d="M43.3954 4.58825L46.081 3.40048L47.2319 3.9245L44.6859 5.07734L45.3137 8.60572L44.1627 8.0817L43.6745 5.49655L42.8025 5.88083L42.2096 7.20834L41.2331 6.75419L43.2908 2.14284L44.2674 2.59699L43.3954 4.58825Z" stroke="white" stroke-width="0.156" stroke-miterlimit="10"/>
<path d="M48.9076 11.0861L50.791 8.50096L46.9196 9.61886L46.1523 9.05991L49.1169 5.00751L49.9888 5.63633L48.1055 8.22148L51.9768 7.10358L52.7441 7.66253L49.7796 11.7149L48.9076 11.0861Z" stroke="white" stroke-width="0.156" stroke-miterlimit="10"/>
<path d="M56.9629 12.0293L56.2305 12.6931L55.254 11.645L52.2546 14.3699L51.5221 13.5664L54.5216 10.8415L53.545 9.7935L54.2774 9.12975L56.9629 12.0293Z" stroke="white" stroke-width="0.156" stroke-miterlimit="10"/>
<path d="M55.4607 16.5358L54.24 16.7804L53.6471 15.8022L58.9484 14.859L59.5414 15.8372L56.2978 20.169L55.7049 19.1909L56.4722 18.2127L55.4607 16.5358ZM58.1811 16.0118L56.4373 16.3612L57.0651 17.4092L58.1811 16.0118Z" stroke="white" stroke-width="0.156" stroke-miterlimit="10"/>
<path d="M57.9732 24.6757L57.6244 23.6626L59.2637 23.0687L58.9498 22.1953L56.9618 21.8809L56.5781 20.798L58.7405 21.1473C58.7405 21.1124 58.7405 21.0774 58.7405 21.0425C58.7405 21.0076 58.7754 20.9028 58.8102 20.798C58.8451 20.6582 58.9149 20.5534 58.9846 20.4486C59.0544 20.3438 59.159 20.239 59.2985 20.0993C59.438 19.9945 59.6124 19.8897 59.7868 19.8198C60.2402 19.6451 60.6587 19.68 61.0424 19.8897C61.426 20.0993 61.7399 20.4137 61.9143 20.9028L62.6816 22.9988L57.9732 24.6757ZM59.8217 21.1473C59.7519 21.322 59.7519 21.4966 59.8217 21.6713L60.2053 22.7193L61.4609 22.2652L61.0773 21.2172C61.0075 21.0425 60.9029 20.9028 60.7285 20.8329C60.5541 20.763 60.3797 20.763 60.2053 20.8329C59.9961 20.8678 59.8914 21.0076 59.8217 21.1473Z" stroke="white" stroke-width="0.156" stroke-miterlimit="10"/>
<path d="M3.77509 34.2826L0.113003 34.3525V33.7935L2.86828 33.7236L0.078125 31.4878V30.9988L3.74021 30.9289V31.4878L0.984928 31.5577L3.77509 33.7935V34.2826Z" stroke="white" stroke-width="0.156" stroke-miterlimit="10"/>
<path d="M3.74045 37.3568C4.19385 37.6363 4.47287 38.0206 4.5775 38.5446C4.64725 38.8241 4.64725 39.1036 4.5775 39.383C4.50775 39.6625 4.43799 39.8721 4.33336 40.0119L4.19385 40.2215L3.74045 39.9071C3.74045 39.9071 3.77533 39.8721 3.77533 39.8372C3.81021 39.8023 3.84508 39.7673 3.87996 39.6625C3.94971 39.5927 3.98459 39.4879 4.01947 39.383C4.05435 39.2782 4.08922 39.1734 4.08922 39.0337C4.08922 38.894 4.08922 38.7542 4.05434 38.6145C3.98459 38.2651 3.77533 37.9857 3.46144 37.7761C3.14754 37.5665 2.79877 37.5315 2.38025 37.6014C1.9966 37.7062 1.68271 37.8809 1.50832 38.2302C1.29906 38.5446 1.22931 38.894 1.33394 39.2433C1.36882 39.4529 1.47345 39.6625 1.61296 39.8372C1.75246 40.0119 1.89197 40.1167 1.9966 40.1865L2.17099 40.2913L1.92685 40.7455C1.89197 40.7455 1.85709 40.7106 1.82222 40.7106C1.78734 40.6756 1.71759 40.6407 1.61296 40.5359C1.50832 40.466 1.40369 40.3612 1.33394 40.2564C1.22931 40.1516 1.15956 40.0468 1.05492 39.8721C0.950293 39.6975 0.880538 39.5228 0.845661 39.3481C0.74103 38.859 0.810785 38.3699 1.0898 37.9158C1.36882 37.4616 1.75246 37.1822 2.27562 37.0774C2.79877 37.0075 3.28705 37.0774 3.74045 37.3568Z" stroke="white" stroke-width="0.156" stroke-miterlimit="10"/>
<path d="M4.75273 41.3394C5.241 41.549 5.58977 41.8983 5.76416 42.4223C5.97342 42.9114 5.97342 43.4354 5.76416 43.8896C5.5549 44.3787 5.20613 44.728 4.71785 44.9027C4.22957 45.1123 3.74129 45.0774 3.25302 44.8677C2.76474 44.6581 2.45084 44.3088 2.24158 43.7848C2.03232 43.2957 2.03232 42.7717 2.24158 42.3175C2.45084 41.8284 2.79961 41.4791 3.28789 41.3044C3.81105 41.1298 4.29932 41.1298 4.75273 41.3394ZM5.31076 43.68C5.45026 43.3306 5.48514 42.9813 5.34563 42.6319C5.20613 42.2826 4.96199 42.038 4.61322 41.8634C4.26445 41.7236 3.91568 41.7236 3.53203 41.8634C3.18326 42.0031 2.90424 42.2477 2.76474 42.597C2.62523 42.9463 2.59035 43.2957 2.72986 43.645C2.86937 43.9944 3.11351 44.2389 3.46228 44.4136C3.81105 44.5533 4.15982 44.5533 4.54346 44.4136C4.89223 44.2739 5.13637 44.0293 5.31076 43.68Z" stroke="white" stroke-width="0.156" stroke-miterlimit="10"/>
<path d="M7.75174 46.6145C7.92612 46.9289 7.99588 47.2084 7.92612 47.4879C7.89125 47.7673 7.71686 47.9769 7.5076 48.1167C7.36809 48.1865 7.22859 48.2215 7.08908 48.2215C6.94957 48.2215 6.81006 48.1865 6.74031 48.1516L6.63568 48.0817C6.63568 48.0817 6.63568 48.1167 6.63568 48.1516C6.63568 48.1865 6.63568 48.2564 6.63568 48.3263C6.63568 48.3961 6.63568 48.501 6.6008 48.5708C6.56592 48.6407 6.53105 48.7455 6.46129 48.8154C6.39154 48.9202 6.28691 48.99 6.18227 49.0599C5.90326 49.2346 5.62424 49.2695 5.34523 49.1647C5.06621 49.0599 4.82207 48.8503 4.64769 48.5359L3.74089 46.9638L6.87981 45.1123L7.75174 46.6145ZM5.48474 46.5446L4.43843 47.1734L5.06621 48.2564C5.17084 48.4311 5.31035 48.5708 5.44986 48.6058C5.58937 48.6407 5.76375 48.6407 5.93814 48.5359C6.11252 48.4311 6.21715 48.3263 6.25203 48.1516C6.28691 48.0119 6.25203 47.8372 6.1474 47.6276L5.48474 46.5446ZM7.33322 46.859L6.74031 45.8459L5.90326 46.335L6.49617 47.3481C6.70543 47.6975 6.94957 47.7673 7.22858 47.6276C7.47272 47.4529 7.54248 47.2084 7.33322 46.859Z" stroke="white" stroke-width="0.156" stroke-miterlimit="10"/>
<path d="M5.2407 52.3437L4.89193 51.9245L8.97253 48.6057L9.3213 49.0249L8.8679 49.3743C8.90278 49.3743 8.90278 49.3743 8.97253 49.3743C9.00741 49.3743 9.07717 49.3743 9.21667 49.4092C9.32131 49.4441 9.42593 49.4441 9.53057 49.4791C9.6352 49.514 9.7747 49.5839 9.87934 49.6887C10.0188 49.7935 10.1235 49.8983 10.2281 50.0031C10.542 50.3874 10.6466 50.8415 10.6118 51.3655C10.542 51.8896 10.3327 52.3088 9.91421 52.6581C9.49569 52.9725 9.04229 53.1472 8.51913 53.0773C7.99598 53.0424 7.57745 52.8328 7.26356 52.4485C7.15893 52.3088 7.08918 52.169 7.01942 52.0293C6.94967 51.8896 6.91479 51.7498 6.91479 51.645C6.91479 51.5402 6.87991 51.4005 6.87991 51.3306C6.87991 51.2258 6.87991 51.1559 6.87991 51.0861L6.91479 51.0162L5.2407 52.3437ZM7.40307 51.121C7.36819 51.5053 7.43795 51.8546 7.64721 52.0992C7.85647 52.3437 8.13549 52.4834 8.51913 52.5184C8.90278 52.5533 9.25155 52.4485 9.53057 52.204C9.84446 51.9594 10.0188 51.645 10.0537 51.2607C10.0886 50.8765 10.0188 50.562 9.80958 50.3175C9.60032 50.038 9.28643 49.8983 8.90278 49.8634C8.51913 49.8284 8.17036 49.9332 7.89135 50.1778C7.61233 50.3874 7.47282 50.7018 7.40307 51.121Z" stroke="white" stroke-width="0.156" stroke-miterlimit="10"/>
<path d="M10.855 53.811C10.6457 54.0555 10.576 54.3699 10.6109 54.7193C10.6457 55.0686 10.7853 55.383 11.0643 55.5927C11.2387 55.7673 11.4479 55.8721 11.6572 55.9071C11.8664 55.9769 12.0408 55.9769 12.1803 55.9769L12.3896 55.942L12.4245 56.4311C12.3896 56.4311 12.3547 56.4311 12.3198 56.466C12.285 56.466 12.1803 56.466 12.0408 56.466C11.9013 56.466 11.7967 56.466 11.6572 56.4311C11.5177 56.3961 11.3782 56.3612 11.2038 56.2564C11.0294 56.1865 10.8899 56.0817 10.7155 55.942C10.3319 55.5926 10.1226 55.1734 10.0877 54.6494C10.0528 54.1254 10.2272 53.6713 10.576 53.252C10.9248 52.8678 11.3782 52.6582 11.9013 52.6232C12.4245 52.5883 12.8779 52.728 13.2615 53.0774C13.6452 53.4267 13.8544 53.8459 13.8893 54.335C13.9242 54.8241 13.7498 55.2782 13.401 55.6625L13.1918 55.8372L10.855 53.811ZM12.0408 53.1822C11.6921 53.1822 11.413 53.287 11.1689 53.4966L13.0871 55.2084C13.2615 54.9289 13.3661 54.6494 13.3313 54.335C13.2964 54.0206 13.1569 53.7411 12.9127 53.5315C12.6686 53.287 12.3547 53.1822 12.0408 53.1822Z" stroke="white" stroke-width="0.156" stroke-miterlimit="10"/>
<path d="M15.5283 58.2476L15.2492 56.0817L13.8193 58.3873L13.3659 58.1079L15.319 54.9987L15.7026 55.2432L16.0165 57.5839L18.2487 56.8502L18.6323 57.0948L16.6792 60.2039L16.2258 59.9245L17.6558 57.6188L15.5283 58.2476Z" stroke="white" stroke-width="0.156" stroke-miterlimit="10"/>
<path d="M19.1559 59.5751C19.0513 59.8895 19.0513 60.2039 19.2257 60.5183C19.3652 60.8328 19.6093 61.0773 19.9232 61.217C20.1325 61.3218 20.3766 61.3568 20.5859 61.3218C20.83 61.3218 20.9695 61.252 21.109 61.217L21.2834 61.1472L21.4927 61.6013C21.4578 61.6013 21.4229 61.6362 21.388 61.6362C21.3532 61.6712 21.2485 61.7061 21.1439 61.7411C21.0044 61.776 20.8998 61.8109 20.7603 61.8109C20.6208 61.8109 20.4812 61.8109 20.272 61.8109C20.0976 61.776 19.8883 61.741 19.714 61.6712C19.2257 61.4616 18.9118 61.1122 18.7025 60.6581C18.4933 60.169 18.4933 59.6799 18.7025 59.1908C18.9118 58.7018 19.2606 58.3524 19.7488 58.1428C20.2371 57.9332 20.6905 57.9332 21.1788 58.1428C21.6671 58.3524 21.981 58.6668 22.1902 59.121C22.3646 59.5751 22.3646 60.0293 22.1553 60.5183L22.0158 60.7629L19.1559 59.5751ZM20.0278 58.562C19.714 58.6668 19.4698 58.8764 19.3303 59.121L21.7019 60.0991C21.8066 59.7847 21.7717 59.4703 21.6322 59.1908C21.4927 58.9114 21.2834 58.7018 20.9695 58.562C20.6556 58.4572 20.3417 58.4572 20.0278 58.562Z" stroke="white" stroke-width="0.156" stroke-miterlimit="10"/>
<path d="M25.8872 61.8459L23.7597 61.3219L23.376 62.894L22.8529 62.7542L23.7248 59.1909L24.2479 59.3307L23.8643 60.8678L25.9918 61.3918L26.3754 59.8547L26.9335 59.9944L26.0615 63.5577L25.5035 63.418L25.8872 61.8459Z" stroke="white" stroke-width="0.156" stroke-miterlimit="10"/>
<path d="M30.6294 62.4398L28.4671 62.2652L28.3276 63.8721L27.7695 63.8372L28.0485 60.204L28.6066 60.239L28.4671 61.811L30.6294 61.9857L30.769 60.4136L31.327 60.4486L31.048 64.0818L30.4899 64.0468L30.6294 62.4398Z" stroke="white" stroke-width="0.156" stroke-miterlimit="10"/>
<path d="M32.8971 60.9026C33.2459 60.5183 33.6993 60.2738 34.2225 60.2388C34.7456 60.2039 35.2339 60.3437 35.6175 60.693C36.0361 61.0423 36.2453 61.4616 36.2802 61.9856C36.3151 62.5096 36.1756 62.9987 35.8268 63.383C35.478 63.7672 35.0246 64.0118 34.5015 64.0467C33.9783 64.0816 33.49 63.9419 33.0715 63.5926C32.653 63.2432 32.4437 62.824 32.4089 62.3C32.4089 61.741 32.5484 61.2869 32.8971 60.9026ZM35.2688 61.0423C34.9898 60.7978 34.641 60.693 34.2573 60.7279C33.8737 60.7629 33.5598 60.9026 33.3157 61.217C33.0715 61.4965 32.9669 61.8458 33.0018 62.2301C33.0366 62.6144 33.211 62.9288 33.49 63.2083C33.7691 63.4528 34.1178 63.5576 34.5015 63.5576C34.8851 63.5227 35.199 63.3829 35.4432 63.0685C35.6873 62.7891 35.7919 62.4397 35.757 62.0205C35.7222 61.6362 35.5827 61.3218 35.2688 61.0423Z" stroke="white" stroke-width="0.156" stroke-miterlimit="10"/>
<path d="M40.3269 59.1909L41.1988 62.7542L40.6408 62.8939L39.9781 60.2389L38.4087 63.4529L37.9553 63.5577L37.0833 59.9944L37.6065 59.8546L38.2692 62.5097L39.8386 59.2957L40.3269 59.1909ZM38.8969 58.3175C38.9667 58.1778 39.0016 58.0031 38.9318 57.8284L39.3503 57.7236C39.4201 58.0031 39.3852 58.2826 39.2457 58.5271C39.1062 58.7717 38.8621 58.9114 38.5482 58.9813C38.2343 59.0511 37.9553 59.0162 37.746 58.8765C37.5367 58.7367 37.3623 58.5271 37.2926 58.2127L37.7111 58.1079C37.746 58.3175 37.8506 58.4573 37.9901 58.5271C38.1296 58.597 38.304 58.6319 38.4784 58.5621C38.6528 58.5621 38.7923 58.4573 38.8969 58.3175Z" stroke="white" stroke-width="0.156" stroke-miterlimit="10"/>
<path d="M44.6508 59.8546L44.7555 61.4616L44.1974 61.7411L43.8138 55.942L44.3021 55.6974L48.7663 59.4005L48.2083 59.68L46.9876 58.6319L44.6508 59.8546ZM44.4416 56.5359L44.616 59.2608L46.5342 58.2826L44.4416 56.5359Z" stroke="white" stroke-width="0.156" stroke-miterlimit="10"/>
<path d="M50.2668 55.418C50.3017 55.5228 50.3017 55.6276 50.2668 55.6975C50.2668 55.7673 50.2319 55.8372 50.1971 55.9071C50.1622 55.9769 50.1622 56.0119 50.1273 56.0468L50.0924 56.0817C50.1273 56.0817 50.1273 56.0468 50.1622 56.0468C50.1971 56.0468 50.2668 56.0119 50.3366 56.0119C50.4412 56.0119 50.511 55.9769 50.6156 56.0119C50.7202 56.0119 50.79 56.0468 50.9295 56.1167C51.0341 56.1865 51.1387 56.2564 51.2085 56.3961C51.3829 56.6407 51.4526 56.9202 51.348 57.2695C51.2783 57.5839 51.0341 57.8983 50.6505 58.1778C50.511 58.2826 50.3366 58.3525 50.1971 58.4223C50.0576 58.4922 49.8832 58.5271 49.7785 58.5271C49.639 58.5271 49.5344 58.5621 49.4298 58.5271C49.3251 58.5271 49.2554 58.5271 49.1856 58.4922L49.1159 58.4573L49.2205 57.9682C49.2554 57.9682 49.3251 58.0031 49.3949 58.0031C49.4646 58.0031 49.6042 58.0031 49.8134 57.9682C50.0227 57.9333 50.1971 57.8634 50.3714 57.7237C50.6156 57.549 50.7551 57.3743 50.8249 57.1996C50.8946 57.025 50.8597 56.8503 50.7551 56.7106C50.6505 56.5708 50.511 56.5009 50.3017 56.5009C50.1273 56.5009 49.8832 56.6057 49.639 56.7804L49.2903 57.025L49.0112 56.6407L49.36 56.3961C49.5344 56.2564 49.6739 56.1167 49.7088 55.942C49.7437 55.7673 49.7437 55.6276 49.639 55.4878C49.5344 55.3481 49.4298 55.2782 49.2554 55.2782C49.081 55.2782 48.9066 55.3481 48.7322 55.4878C48.5927 55.5926 48.4881 55.7324 48.3835 55.8721C48.2788 56.0119 48.2439 56.1516 48.2439 56.2564L48.2091 56.3961L47.651 56.3263C47.651 56.2564 47.6859 56.1865 47.6859 56.1167C47.7208 56.0119 47.7906 55.8721 47.9301 55.6625C48.0696 55.4529 48.244 55.2433 48.4532 55.1036C48.7671 54.859 49.081 54.7892 49.3949 54.7892C49.7088 54.8241 49.9529 54.9289 50.1273 55.1734C50.1971 55.2084 50.2319 55.3132 50.2668 55.418Z" stroke="white" stroke-width="0.156" stroke-miterlimit="10"/>
<path d="M52.8466 51.2957L55.3926 53.9157L55.009 54.3L53.0908 52.3088L53.3349 55.8721L52.9861 56.1865L50.4401 53.5664L50.8238 53.1821L52.742 55.1734L52.4978 51.6101L52.8466 51.2957Z" stroke="white" stroke-width="0.156" stroke-miterlimit="10"/>
<path d="M55.6726 47.7323L58.6023 49.9332L58.2535 50.3874L56.0563 48.7454L56.8584 52.2389L56.5794 52.6232L53.6497 50.4223L53.9985 49.9682L56.1958 51.6101L55.3936 48.1166L55.6726 47.7323Z" stroke="white" stroke-width="0.156" stroke-miterlimit="10"/>
<path d="M56.4745 42.597C56.6838 42.1428 56.9977 41.7935 57.4162 41.6188C57.8347 41.4441 58.2881 41.4441 58.7066 41.6537C59.1252 41.8633 59.4391 42.1778 59.5786 42.597C59.7181 43.0511 59.7181 43.5053 59.5088 43.9594L58.881 45.3219L60.6946 46.1254L60.4505 46.6843L55.5677 44.5184L56.4745 42.597ZM56.3699 44.204L58.4625 45.1472L59.0903 43.7847C59.2298 43.4703 59.2647 43.1559 59.16 42.8764C59.0554 42.597 58.8461 42.3874 58.5322 42.2476C58.2184 42.1079 57.9045 42.1079 57.6603 42.2127C57.3813 42.3175 57.172 42.562 57.0325 42.8764L56.3699 44.204Z" stroke="white" stroke-width="0.156" stroke-miterlimit="10"/>
<path d="M61.3924 40.3612L62.6828 41.3044L62.5433 41.9332L57.8698 38.4747L58.0093 37.9507L63.7291 36.9376L63.5896 37.5664L61.9853 37.8459L61.3924 40.3612ZM58.7068 38.4048L60.9041 40.0118L61.3924 37.9158L58.7068 38.4048Z" stroke="white" stroke-width="0.156" stroke-miterlimit="10"/>
<path d="M58.5677 35.0512L58.6026 34.4573L60.9742 34.5271L61.0788 31.4529L58.7072 31.383L58.7421 30.7892L64.0783 30.9638L64.0434 31.5577L61.602 31.4878L61.4974 34.5621L63.9388 34.632L63.9039 35.2258L58.5677 35.0512Z" stroke="white" stroke-width="0.156" stroke-miterlimit="10"/>
</svg>
