<svg width="56" height="56" viewBox="0 0 56 56" fill="none" xmlns="http://www.w3.org/2000/svg">
<rect x="0.5" y="0.5" width="55" height="55" stroke="black" stroke-opacity="0.1"/>
<path d="M28.1618 18C22.6514 18 18 22.2834 18 27.9761C18 30.3595 18.4398 32.0054 18.8265 33.4823C19.1512 34.6811 19.4379 35.7795 19.4379 37.0797C19.5769 38.8107 22.7524 37.7996 23.7548 36.5037C25.3403 37.6545 26.2526 37.9425 28.215 37.9425C33.6407 37.913 38.0184 33.478 37.9999 28.0285C37.9999 22.494 33.6776 18 28.1618 18ZM33.1096 28.2499C32.9229 31.0401 30.5467 33.166 27.7654 33.0318C26.8944 32.962 26.0582 32.6621 25.3392 32.1636C24.9048 32.5999 24.2076 33.166 23.9307 33.0984C23.3529 32.9446 22.6753 29.9952 23.0565 27.5726C23.5202 24.6471 25.6118 22.7808 28.2954 22.9204V22.9248C31.0766 23.0851 33.2182 25.4532 33.1086 28.2488L33.1096 28.2499Z" fill="black"/>
</svg>
