<svg width="56" height="56" viewBox="0 0 56 56" fill="none" xmlns="http://www.w3.org/2000/svg">
<rect x="0.5" y="0.5" width="55" height="55" stroke="#D3D3D3"/>
<path d="M26.0453 36.03C26.9127 36.2664 30.4565 37.1954 30.4565 35.5139V32.1047C31.2443 29.926 34.1674 33.4819 36.8889 36.5H41.1992C41.7775 36.5 42.1674 35.8888 41.9286 35.3509C40.7589 32.7104 38.4061 30.5508 36.9074 29.1871C36.5865 28.8937 36.5493 28.3912 36.8252 28.0543C38.4671 26.0414 40.0029 23.5286 41.5361 20.717C41.8332 20.1737 41.4485 19.5027 40.8385 19.5027H36.6501C34.8491 22.7843 32.7695 26.237 31.4512 27.4132C31.0639 27.7609 30.4565 27.4811 30.4565 26.9541V20.1167C30.4565 19.7771 30.1886 19.5054 29.857 19.5054H24.7164C24.1912 19.5054 23.9154 20.1492 24.2761 20.5377L24.3583 20.6301C25.04 21.3988 25.4008 22.4094 25.4008 23.4498V28.2309C25.4008 28.6764 24.9498 28.9752 24.552 28.7878C22.1117 27.6387 20.3928 23.5368 19.1276 19.7771C19.0719 19.6114 18.9207 19.5 18.7509 19.5H14.5997C14.2469 19.5 13.9684 19.8124 14.0029 20.171C14.1488 21.7438 14.544 23.2814 15.1116 24.7538C17.0002 29.6435 20.8968 34.6229 26.0427 36.0273L26.0453 36.03Z" fill="black"/>
</svg>
