<svg width="56" height="56" viewBox="0 0 56 56" fill="none" xmlns="http://www.w3.org/2000/svg">
<rect x="0.5" y="0.5" width="55" height="55" stroke="black" stroke-opacity="0.1"/>
<path d="M24.6672 27.5114C23.95 27.5114 23.3821 26.9432 23.3821 26.2255C23.3821 25.5078 23.95 24.9397 24.6672 24.9397C25.3845 24.9397 25.9524 25.5078 25.9524 26.2255C25.9524 26.9432 25.3845 27.5114 24.6672 27.5114ZM31.3339 27.5114C30.6166 27.5114 30.0488 26.9432 30.0488 26.2255C30.0488 25.5078 30.6166 24.9397 31.3339 24.9397C32.0512 24.9397 32.6191 25.5078 32.6191 26.2255C32.6191 26.9432 32.0512 27.5114 31.3339 27.5114ZM22.8229 35.2153L23.5384 34.7789C24.3481 34.2851 25.307 34.095 26.2438 34.2426C26.4553 34.2759 26.6292 34.3015 26.7634 34.3192C27.1696 34.3728 27.5828 34.4 28.0006 34.4C32.4213 34.4 35.9006 31.3776 35.9006 27.8C35.9006 24.2224 32.4213 21.2 28.0006 21.2C23.5799 21.2 20.1006 24.2224 20.1006 27.8C20.1006 29.1655 20.6002 30.4728 21.5323 31.5809C21.5806 31.6383 21.6528 31.7177 21.7467 31.8155C22.542 32.6438 22.943 33.7739 22.8476 34.9182L22.8229 35.2153ZM22.1929 37.9423C22.0099 38.0566 21.7948 38.1087 21.5798 38.0908C21.0294 38.045 20.6204 37.5616 20.6663 37.0112L20.8546 34.7521C20.9022 34.1799 20.7017 33.6149 20.3041 33.2008C20.1819 33.0735 20.0811 32.9627 20.0017 32.8683C18.8062 31.447 18.1006 29.6951 18.1006 27.8C18.1006 23.0503 22.533 19.2 28.0006 19.2C33.4682 19.2 37.9006 23.0503 37.9006 27.8C37.9006 32.5496 33.4682 36.4 28.0006 36.4C27.4911 36.4 26.9906 36.3665 26.5018 36.302C26.3491 36.2819 26.1593 36.254 25.9326 36.2182C25.4641 36.1444 24.9847 36.2395 24.5799 36.4864L22.1929 37.9423Z" fill="black"/>
</svg>
