<svg width="56" height="56" viewBox="0 0 56 56" fill="none" xmlns="http://www.w3.org/2000/svg">
<rect x="0.5" y="0.5" width="55" height="55" stroke="black" stroke-opacity="0.1"/>
<path d="M19.3749 26.9574C24.7435 24.8416 28.324 23.4449 30.1142 22.7709C35.23 20.8461 36.2934 20.5109 36.9864 20.5001C37.1397 20.4983 37.4782 20.5325 37.6993 20.6947C37.8825 20.8317 37.9343 21.0155 37.9621 21.1453C37.986 21.275 38.0159 21.5706 37.99 21.8013C37.7132 24.4361 36.5144 30.8322 35.9031 33.7842C35.6462 35.0331 35.1384 35.4512 34.6465 35.4927C33.5752 35.581 32.7647 34.8529 31.7292 34.2383C30.1102 33.276 29.1942 32.6776 27.6211 31.7405C25.8029 30.6555 26.9818 30.0608 28.0173 29.0858C28.2882 28.8317 33.0017 24.9515 33.0913 24.6001C33.1032 24.5568 33.1152 24.3928 33.0057 24.3063C32.9001 24.2198 32.7408 24.2487 32.6253 24.2721C32.462 24.3063 29.8753 25.8544 24.8551 28.9182C24.1222 29.3742 23.4571 29.5976 22.8577 29.5868C22.2026 29.5742 20.9361 29.2498 19.9942 28.9741C18.8432 28.6335 17.9252 28.455 18.0048 27.8783C18.0446 27.5792 18.5027 27.271 19.3749 26.9574Z" fill="black"/>
</svg>
